<?xml version="1.0" encoding="UTF-8"?>
<svg id="Calque_1" data-name="Calque 1" xmlns="http://www.w3.org/2000/svg" viewBox="0 0 978.71 160.47">
  <defs>
    <style>
      .cls-1 {
        stroke: #fff;
      }

      .cls-1, .cls-2 {
        fill: none;
        stroke-miterlimit: 10;
      }

      .cls-2 {
        stroke: #2b40fc;
      }
    </style>
  </defs>
  <path class="cls-1" d="M786.08,159.95V3.37l106.27-.03c55.34.19,88.11,25.1,85.74,82.9-2.03,49.49-26.82,71.89-75.49,73.73l-116.52-.02ZM838.49,118.38c31.53-2.06,86.08,11.5,87.18-36.13,1.16-50.17-52.73-34.83-85.22-37.35l-1.96.88v72.6Z"/>
  <path class="cls-1" d="M187.92,3.37l105.7-.03c41.81.35,68.09,16.93,65.22,61.83-1.37,21.53-10,34.85-29.43,43.48-.54.24-1-.33-.78.89l34.74,50.4h-51.56l-33.61-47.26h-37.03l-.85.85v46.4h-52.41V3.37ZM240.33,76.82h51.56c4.77,0,11.77-4.6,13.67-9.11,2.07-4.92,3.02-19.87-1.79-23.26-.75-.53-5.53-2.36-6.18-2.36h-57.25v34.73Z"/>
  <path class="cls-1" d="M467.51.69l8.4-.19c47.22,2.14,93.96,18.34,97.13,72.6,3.7,63.39-40.82,85.14-97.18,86.26-57.45,1.14-107.67-19.7-103.97-85.69C374.93,19.74,420.19,2.87,467.51.69ZM468.08,42.26c-26.58,1.29-45.68,12.37-43.77,41.71,1.91,29.31,28.9,35.89,53.85,34.42,25.49-1.5,43.81-12.87,42.47-40.73-1.41-29.31-27.38-36.62-52.55-35.4Z"/>
  <path class="cls-1" d="M52.91,112.69v47.26H.5V3.37l106.27-.02c33.25.38,62.13,11.54,64.63,48.71,2.24,33.35-12.28,58.27-47.57,60.63H52.91ZM52.91,76.82h51.56c3.29,0,9.95-3.54,11.93-6.3,3.56-4.97,5.15-20.98.83-25.24-1.04-1.03-5.79-3.19-7.06-3.19h-57.25v34.73Z"/>
  <g>
    <path class="cls-2" d="M567.89,159.95L641.66,3.93l53.01-.6,17.31,36.43c-16.44,6.68-33.1,12.92-49.5,19.71-7.84,3.24-21.71,7.85-28.33,12.11-8.31,5.35-6.52,15.94,2.99,18.3l65.78,11.12c6.76,2.21,8.26,8.96,3.78,14.33l-87.25,44.61h-51.56Z"/>
    <path class="cls-2" d="M733.66,84.79l-7.76-5.62c-21.17-6.48-45.07-3.76-67.14-6.35-2.1-.37-2.65-2.69-1.48-4.3l57.77-22.97,18.6,39.24Z"/>
    <path class="cls-2" d="M769.56,159.95h-39.88c4.38-9.67,7.67-19.79,9.98-30.17,1.15-5.15,2.82-12.23,3.12-17.38.2-3.43-.75-6.61-.28-9.96l27.06,57.51Z"/>
  </g>
</svg>