<?xml version="1.0" standalone="no"?>
<!DOCTYPE svg PUBLIC "-//W3C//DTD SVG 20010904//EN"
 "http://www.w3.org/TR/2001/REC-SVG-20010904/DTD/svg10.dtd">
<svg version="1.0" xmlns="http://www.w3.org/2000/svg"
 width="1500.000000pt" height="1601.000000pt" viewBox="0 0 1500.000000 1601.000000"
 preserveAspectRatio="xMidYMid meet">

<g transform="translate(0.000000,1601.000000) scale(0.100000,-0.100000)"
fill="#000000" stroke="none">
<path d="M7371 15069 c-289 -34 -518 -194 -630 -441 -47 -103 -62 -177 -68
-344 l-6 -154 322 0 321 0 -6 243 c-6 244 5 478 25 515 7 13 26 22 58 26 26 4
63 10 81 13 l32 5 0 69 c0 53 -3 69 -14 69 -8 0 -20 2 -28 4 -7 2 -46 -1 -87
-5z"/>
<path d="M7510 15007 l0 -74 80 -7 c43 -3 135 -18 202 -31 309 -63 1550 -399
2081 -563 l127 -40 0 68 0 68 -112 35 c-125 40 -554 165 -688 202 -1088 297
-1421 381 -1595 400 -33 4 -68 9 -77 11 -16 5 -18 -3 -18 -69z"/>
<path d="M10012 14354 l3 -65 120 -48 c66 -26 144 -62 173 -79 50 -30 58 -32
155 -32 l102 0 -25 20 c-69 55 -203 137 -284 176 -82 39 -223 94 -240 94 -4 0
-6 -29 -4 -66z"/>
<path d="M6670 13908 c0 -186 8 -479 36 -1420 l7 -227 81 -4 81 -3 -80 -2 -80
-2 17 -467 c9 -258 17 -491 17 -520 l1 -51 -407 -396 c-223 -218 -412 -396
-420 -396 -7 0 -199 52 -426 114 -226 63 -429 118 -449 122 l-38 6 0 -141 0
-141 528 1 c457 1 521 3 479 14 -27 7 -51 15 -53 18 -11 11 146 71 234 89 156
32 305 20 597 -51 44 -11 94 -23 110 -27 42 -10 44 -11 97 -27 31 -10 96 -15
185 -16 76 -1 139 -4 142 -7 4 -4 -683 -9 -719 -5 -12 2 -12 0 -2 -7 7 -5 146
-10 307 -11 l295 -2 127 -35 c71 -19 136 -37 145 -40 13 -4 18 3 21 28 2 18 5
-20 5 -84 2 -133 18 -169 21 -46 1 45 3 84 5 86 4 3 345 -90 691 -189 517
-148 773 -252 945 -383 91 -69 248 -224 215 -211 -25 9 -340 96 -454 125 -46
12 -138 48 -205 80 -67 32 -182 79 -256 104 -406 134 -1554 449 -2005 549
l-140 31 -657 3 -657 4 -4 -83 -3 -83 -2 82 -2 83 -307 3 -308 2 308 3 307 2
0 145 c0 80 -2 145 -5 145 -3 0 -70 11 -148 24 -258 45 -2261 326 -2319 326
-14 0 -18 -12 -21 -67 l-3 -68 -2 70 -2 71 -477 63 c-263 36 -485 65 -493 65
-8 1 -22 -20 -33 -51 l-20 -53 -45 0 -45 0 6 -107 c4 -60 10 -210 13 -335 6
-196 9 -228 23 -231 15 -4 15 -5 0 -6 -13 -1 -15 -10 -13 -48 2 -27 18 -444
35 -928 19 -525 36 -883 42 -886 5 -4 6 -8 0 -10 -13 -5 56 -1862 69 -1870 7
-4 7 -8 0 -10 -13 -5 56 -1852 70 -1860 7 -5 7 -8 0 -10 -17 -6 14 -760 34
-826 8 -29 19 -53 24 -53 9 0 389 263 2320 1605 1137 790 1313 913 1633 1142
125 90 230 163 234 163 3 0 11 -8 18 -17 11 -15 3 -25 -69 -78 -256 -190 -649
-471 -1038 -741 -209 -145 -1943 -1352 -2628 -1829 -454 -316 -429 -299 -430
-306 0 -3 14 -16 31 -28 22 -16 146 -55 383 -121 304 -84 352 -95 358 -81 6
14 7 14 7 -1 1 -10 15 -21 34 -27 17 -5 576 -159 1241 -341 955 -262 1211
-329 1217 -318 7 10 9 10 9 1 0 -9 17 -13 48 -14 41 -1 43 -2 15 -8 -25 -5
242 -81 1195 -342 675 -185 1229 -332 1231 -327 1 5 8 3 15 -5 6 -8 566 -166
1245 -351 976 -267 1236 -335 1242 -324 7 10 9 9 9 -4 0 -10 6 -18 13 -18 6 0
23 -3 36 -7 23 -6 24 -4 19 34 l-6 40 79 18 79 18 0 81 c0 45 -16 506 -35
1026 -19 520 -35 984 -37 1033 -2 76 -4 87 -20 87 -16 0 -18 11 -18 124 0 88
4 126 12 128 9 3 2 278 -32 1192 l-43 1187 78 79 78 79 -49 4 -49 3 58 2 57 2
433 418 c760 734 1097 1061 1298 1258 l195 193 -50 4 -51 3 58 2 59 2 127 128
c71 70 145 151 165 181 l36 53 0 748 c0 704 -1 749 -17 753 -17 4 -17 5 0 6
16 1 17 37 17 646 0 375 -4 645 -10 645 -5 0 -15 -7 -24 -15 -8 -8 -21 -15
-28 -15 -10 0 -9 -3 2 -10 8 -5 12 -12 8 -15 -3 -3 -13 1 -21 10 -14 14 -16
13 -22 -6 -7 -21 -8 -21 -25 -3 -9 11 -52 71 -95 134 -122 179 -191 266 -309
387 l-109 113 -376 2 -376 3 324 2 c245 3 327 6 333 16 6 9 8 9 8 0 0 -8 14
-13 38 -13 l37 1 -35 28 c-24 21 -37 26 -42 18 -4 -7 -8 4 -8 23 0 29 -22 451
-35 680 -12 207 -16 269 -20 300 -3 19 -7 58 -10 85 -11 112 -14 131 -20 155
-4 14 -8 35 -9 48 0 13 -7 22 -16 22 -9 0 -21 5 -28 12 -9 9 -12 9 -12 1 0 -7
5 -15 10 -18 6 -3 10 -12 10 -18 0 -8 -3 -8 -8 -2 -13 19 -36 11 -49 -17 -7
-14 -30 -41 -50 -58 -35 -31 -36 -33 -18 -46 17 -13 17 -14 1 -14 -9 0 -15 -4
-12 -8 3 -5 -1 -9 -9 -9 -10 0 -11 5 -5 18 7 12 5 19 -6 23 -8 3 -12 2 -9 -4
6 -10 -29 -33 -37 -24 -3 3 -8 -2 -12 -11 -3 -9 -2 -13 4 -10 6 3 7 -1 4 -10
-4 -8 -18 -18 -32 -22 -24 -6 -25 -7 -7 -14 19 -7 19 -8 -1 -8 -20 -1 -31 -31
-11 -31 6 0 7 -3 4 -7 -4 -3 -15 2 -26 11 -23 21 -39 3 -19 -21 10 -14 10 -15
0 -9 -9 5 -13 3 -11 -5 3 -29 -2 -39 -20 -39 -11 0 -26 -6 -33 -12 -7 -7 -29
-14 -49 -16 -40 -3 -43 1 -88 115 -86 220 -238 442 -434 636 l-119 117 -101 0
c-55 0 -97 -4 -92 -8 6 -5 48 -38 95 -74 105 -80 256 -237 333 -346 77 -107
159 -266 196 -378 17 -52 36 -144 45 -215 16 -128 32 -469 22 -469 -3 0 -92
25 -198 56 -213 62 -211 61 -588 163 -146 39 -266 75 -268 81 -9 25 -22 6 -24
-32 l-1 -43 -4 37 c-5 44 24 33 -318 118 -346 85 -437 102 -615 115 -41 3 -89
8 -107 11 -67 10 -242 -57 -337 -131 -53 -40 -75 -61 -424 -396 -123 -118
-256 -243 -295 -279 l-71 -65 45 -6 44 -6 -50 -2 -50 -2 -215 -204 c-118 -113
-218 -205 -221 -205 -3 0 -9 91 -13 203 -4 111 -9 252 -11 312 -3 61 -12 315
-20 565 -8 250 -20 588 -25 750 -5 162 -10 330 -10 373 l0 77 -320 0 -320 0 0
-212z m4944 -329 c-3 -5 -10 -7 -15 -3 -5 3 -7 10 -3 15 3 5 10 7 15 3 5 -3 7
-10 3 -15z m-4 -40 c0 -4 -7 -6 -15 -3 -8 4 -15 10 -15 15 0 4 7 6 15 3 8 -4
15 -10 15 -15z m-4697 -1286 c-7 -2 -19 -2 -25 0 -7 3 -2 5 12 5 14 0 19 -2
13 -5z m5061 -153 c88 -85 181 -202 226 -285 11 -22 15 -32 8 -21 -92 130
-152 201 -260 310 -141 140 -122 137 26 -4z m-246 -1727 c-76 -2 -200 -2 -275
0 -76 1 -14 3 137 3 151 0 213 -2 138 -3z m-4221 -740 c-1 -65 -3 -14 -3 112
0 127 2 180 3 118 2 -62 2 -165 0 -230z m1785 13 c78 -67 165 -162 235 -258
45 -61 56 -78 50 -78 -2 0 -24 28 -48 62 -44 64 -233 260 -324 338 -27 23 -36
33 -20 22 17 -11 65 -50 107 -86z m2497 -301 c64 -15 69 -19 91 -58 13 -23 30
-50 38 -60 26 -29 28 -159 4 -244 -11 -39 -28 -87 -37 -106 -20 -44 -81 -107
-101 -107 -8 0 -32 -10 -53 -22 l-37 -21 -63 19 c-86 25 -102 49 -109 164 -9
167 68 368 165 431 35 22 23 22 102 4z m-4996 -230 c173 -10 383 -70 584 -165
l122 -58 4 86 3 87 2 -90 2 -90 73 -44 c106 -66 247 -173 336 -257 l79 -74
108 -2 109 -2 -97 -3 c-54 -2 -98 -6 -98 -9 0 -3 22 -29 49 -57 75 -79 171
-201 241 -307 71 -109 179 -322 210 -416 12 -35 25 -66 29 -68 4 -3 16 12 26
32 54 105 83 118 109 50 17 -41 17 -41 -7 -62 -14 -12 -30 -31 -36 -43 -15
-29 -13 -93 3 -121 17 -31 65 -62 97 -62 27 0 39 -16 39 -51 0 -15 -7 -19 -32
-20 -18 0 -46 -2 -63 -3 -16 -2 -40 1 -52 5 -22 8 -22 7 -15 -39 13 -83 8
-372 -7 -442 -19 -85 -38 -102 -213 -189 l-140 -71 243 -3 244 -2 -260 -3
c-245 -2 -264 -3 -340 -27 -111 -34 -211 -52 -343 -60 -62 -4 -111 -9 -109
-11 2 -2 52 -11 113 -20 224 -34 488 -2 678 81 17 8 17 7 0 -26 -30 -59 -95
-142 -163 -208 -176 -171 -424 -269 -698 -274 l-113 -2 -2 -95 -2 -95 -3 96
-4 96 -71 7 c-327 30 -722 208 -1023 460 l-90 75 -115 3 -115 2 109 3 108 4
-94 97 c-304 315 -497 679 -574 1087 -26 136 -24 371 4 501 12 56 29 117 37
137 8 20 15 39 15 41 0 3 -48 7 -107 9 l-108 3 110 2 111 2 11 29 c53 142 227
342 367 424 44 26 81 45 83 44 1 -2 -12 -41 -31 -88 -44 -113 -86 -305 -86
-395 0 -18 69 -20 74 -1 13 54 74 225 101 285 41 89 139 253 163 274 26 24
192 48 287 41 22 -1 80 -5 128 -8z m2945 -612 c-38 -2 -98 -2 -135 0 -38 2 -7
3 67 3 74 0 105 -1 68 -3z m1935 0 c-51 -2 -135 -2 -185 0 -51 1 -10 3 92 3
102 0 143 -2 93 -3z m-1933 -53 c-13 -8 -12 -10 3 -10 9 0 17 5 17 10 0 6 7
10 15 10 12 0 15 -17 16 -90 1 -49 2 -93 3 -97 9 -34 46 -1013 46 -1198 0
-113 -1 -121 -20 -122 -11 -1 -29 -11 -42 -22 -27 -26 -39 -26 -66 -2 -16 13
-22 30 -22 59 0 23 -11 76 -24 119 -13 43 -27 112 -31 153 -4 41 -10 84 -12
95 -11 41 -14 692 -5 775 23 188 74 327 122 329 13 1 13 0 0 -9z m-999 -893
c14 -47 15 -57 3 -57 -20 0 -54 37 -54 58 0 32 12 63 23 59 6 -2 19 -29 28
-60z m1062 -934 c-35 -2 -91 -2 -125 0 -35 2 -7 3 62 3 69 0 97 -1 63 -3z
m-780 -2427 c23 -18 197 -340 197 -366 0 -11 -34 -83 -76 -160 -56 -102 -81
-140 -95 -140 -21 0 -99 108 -99 137 0 10 12 36 25 58 20 32 25 53 25 106 0
59 -4 73 -32 115 -58 85 -158 122 -244 89 -96 -37 -144 -105 -144 -205 0 -136
103 -228 245 -218 l49 3 38 -55 c23 -34 37 -65 35 -80 l-2 -25 -185 -2 c-139
-2 -189 1 -202 10 -23 18 -198 341 -198 366 0 33 179 358 204 369 34 17 437
15 459 -2z m452 -31 c0 -27 -3 -30 -30 -30 -21 0 -31 5 -33 18 -6 33 6 49 35
45 24 -3 28 -8 28 -33z m228 -86 c32 -17 67 -51 67 -65 0 -24 -40 -27 -61 -5
-22 23 -66 28 -92 8 -10 -6 -20 -28 -23 -47 -12 -72 68 -120 115 -69 13 14 26
19 40 14 29 -9 26 -29 -10 -59 -24 -20 -41 -26 -81 -26 -43 0 -54 4 -83 33
-67 67 -53 166 29 207 47 23 68 25 99 9z m281 -3 c72 -30 99 -124 56 -194 -23
-38 -54 -52 -115 -52 -109 0 -163 142 -82 218 44 41 88 50 141 28z m-509 -121
l0 -120 -27 -3 -28 -3 0 126 0 126 28 -3 27 -3 0 -120z m-595 -30 c16 -15 34
-40 40 -56 25 -59 -12 -138 -76 -165 -44 -18 -68 -18 -111 3 -92 43 -98 179
-10 234 46 29 118 22 157 -16z m660 -247 c19 -21 27 -48 14 -48 -4 0 -17 12
-30 26 -18 19 -30 24 -47 19 -35 -11 -42 -23 -42 -76 0 -39 5 -54 19 -65 28
-20 44 -18 70 11 13 14 26 25 30 25 13 0 5 -25 -16 -47 -27 -29 -67 -30 -102
-2 -23 18 -26 28 -26 79 0 51 3 61 26 79 35 27 78 27 104 -1z m610 7 c0 -8 -7
-15 -15 -15 -8 0 -15 7 -15 15 0 8 7 15 15 15 8 0 15 -7 15 -15z m-490 -51 c0
-8 -9 -14 -20 -14 -18 0 -20 -7 -20 -60 0 -47 -3 -60 -15 -60 -12 0 -15 15
-15 74 l0 74 35 0 c23 0 35 -5 35 -14z m122 -1 c10 -9 18 -27 18 -40 0 -21 -4
-23 -50 -23 -48 0 -50 -1 -40 -21 15 -27 38 -35 61 -21 11 7 20 8 24 2 7 -11
-27 -30 -54 -30 -33 0 -61 35 -61 75 0 62 60 96 102 58z m155 -13 c7 -14 13
-46 13 -71 l0 -46 -47 -1 c-55 0 -73 11 -73 44 0 26 26 44 64 44 16 0 26 6 26
14 0 19 -39 31 -53 17 -6 -6 -18 -11 -26 -11 -11 0 -10 4 4 20 26 29 75 23 92
-10z m73 -15 c7 -25 16 -48 20 -50 5 -3 14 17 21 45 7 28 19 50 26 50 17 0 17
-4 -11 -80 -13 -37 -30 -65 -37 -65 -12 0 -20 19 -55 128 -3 11 0 17 9 17 9 0
20 -18 27 -45z m140 -30 c0 -60 -3 -75 -15 -75 -12 0 -15 15 -15 75 0 60 3 75
15 75 12 0 15 -15 15 -75z"/>
<path d="M6044 8403 c4 -54 13 -127 19 -163 l12 -65 2 65 c3 74 21 223 29 245
5 12 -2 15 -31 15 l-37 0 6 -97z"/>
<path d="M9893 4022 c-18 -12 -34 -62 -27 -86 26 -84 134 -69 134 19 0 22 -8
43 -20 55 -20 20 -65 26 -87 12z"/>
<path d="M9722 3618 c-20 -20 -14 -28 23 -28 33 0 35 2 25 20 -12 23 -30 26
-48 8z"/>
<path d="M9861 3556 c-9 -10 -8 -16 3 -25 18 -15 56 2 56 24 0 19 -44 20 -59
1z"/>
<path d="M11645 13640 c3 -5 8 -10 11 -10 2 0 4 5 4 10 0 6 -5 10 -11 10 -5 0
-7 -4 -4 -10z"/>
<path d="M11290 13297 c-10 -19 -9 -20 2 -6 7 9 19 14 26 12 17 -6 15 4 -3 11
-9 3 -19 -3 -25 -17z"/>
<path d="M9025 13150 c3 -5 8 -10 11 -10 2 0 4 5 4 10 0 6 -5 10 -11 10 -5 0
-7 -4 -4 -10z"/>
<path d="M10010 13051 c0 -61 4 -101 10 -101 6 0 10 38 10 94 0 53 -4 98 -10
101 -6 4 -10 -30 -10 -94z"/>
<path d="M12510 11128 l0 -748 95 0 95 0 0 83 c0 98 -26 601 -40 777 -15 189
-28 278 -50 355 -12 39 -22 77 -23 85 -3 21 -28 35 -37 20 -12 -19 -20 14 -20
83 0 34 -5 69 -10 77 -6 10 -10 -246 -10 -732z"/>
<path d="M12510 9623 c0 -487 4 -743 10 -733 5 8 10 22 10 30 0 13 63 117 79
130 19 15 71 96 71 110 0 9 4 20 9 25 29 33 39 419 24 953 l-6 232 -99 0 -98
0 0 -747z"/>
<path d="M0 505 l0 -505 7500 0 7500 0 0 505 0 505 -7500 0 -7500 0 0 -505z
m683 163 c19 -29 48 -79 66 -110 l32 -58 -48 -82 c-27 -46 -56 -84 -64 -86 -9
-1 -24 13 -36 35 -21 38 -21 38 -2 73 23 43 24 83 3 120 -47 79 -168 79 -209
0 -41 -79 8 -167 98 -177 40 -5 50 -11 68 -40 34 -55 23 -63 -83 -63 -51 0
-98 4 -103 8 -14 9 -125 201 -125 215 0 6 27 57 61 114 l61 103 124 0 124 0
33 -52z m2094 -280 c-1 -62 -3 -12 -3 112 0 124 2 174 3 113 2 -62 2 -164 0
-225z m-1837 247 c0 -20 -5 -25 -25 -25 -20 0 -25 5 -25 25 0 20 5 25 25 25
20 0 25 -5 25 -25z m1550 -30 c0 -18 5 -25 20 -25 13 0 20 -7 20 -19 0 -10 -9
-21 -20 -24 -16 -4 -20 -14 -20 -52 0 -38 4 -48 20 -52 11 -3 20 -14 20 -24 0
-14 -7 -19 -28 -19 -41 0 -52 17 -52 83 0 50 -3 60 -20 64 -11 3 -20 11 -20
19 0 7 9 18 20 24 11 6 20 20 20 30 0 13 7 20 20 20 15 0 20 -7 20 -25z
m10840 -78 l0 -103 -45 -2 c-36 -1 -47 3 -60 20 -20 29 -19 78 1 107 14 19 23
22 50 18 33 -6 34 -5 34 29 0 19 5 34 10 34 6 0 10 -41 10 -103z m-8830 -10
l0 -103 -45 -2 c-36 -1 -47 3 -60 20 -20 29 -19 78 1 107 14 19 23 22 50 18
33 -6 34 -5 34 29 0 19 5 34 10 34 6 0 10 -41 10 -103z m8670 3 c0 -60 -4
-100 -10 -100 -6 0 -10 40 -10 100 0 60 4 100 10 100 6 0 10 -40 10 -100z
m400 0 c0 -60 -4 -100 -10 -100 -6 0 -10 35 -10 86 l0 86 -25 -6 c-14 -4 -25
-3 -25 2 0 7 42 28 63 31 4 1 7 -44 7 -99z m182 83 c22 -20 23 -41 3 -63 -14
-15 -14 -18 0 -30 35 -29 4 -90 -46 -90 -31 0 -59 23 -59 48 0 14 4 12 18 -6
27 -35 76 -28 80 11 3 23 -2 29 -30 39 l-33 12 33 13 c26 10 33 19 30 36 -4
29 -56 37 -75 11 -7 -10 -16 -15 -20 -11 -11 12 29 47 55 47 14 0 34 -7 44
-17z m151 0 c51 -57 13 -183 -55 -183 -10 0 -18 5 -18 10 0 6 11 10 24 10 24
0 38 12 49 41 5 14 0 16 -32 12 -32 -4 -41 -1 -55 18 -22 31 -20 65 4 89 25
25 62 26 83 3z m157 -53 c0 -60 3 -70 18 -71 16 -1 16 -2 0 -6 -11 -3 -18 -14
-18 -29 0 -13 -4 -24 -10 -24 -5 0 -10 11 -10 24 0 22 -5 25 -46 28 l-45 3 46
73 c26 39 51 72 56 72 5 0 9 -31 9 -70z m166 45 c15 -23 15 -27 1 -49 -14 -21
-14 -26 -2 -36 35 -29 3 -90 -47 -90 -29 0 -68 30 -68 53 0 7 6 22 14 33 10
13 11 25 5 35 -23 37 3 79 51 79 20 0 35 -8 46 -25z m174 21 c0 -15 -93 -199
-96 -190 -3 5 11 45 31 86 19 42 35 79 35 82 0 3 -22 6 -49 6 -28 0 -53 5 -56
10 -4 6 20 10 64 10 39 0 71 -2 71 -4z m137 -26 c10 -20 10 -29 -2 -46 -12
-19 -12 -24 0 -34 35 -29 3 -90 -47 -90 -27 0 -68 30 -68 50 0 17 14 11 28
-11 10 -15 21 -19 45 -17 28 3 32 7 32 32 0 24 -6 31 -35 41 l-35 12 32 7 c53
12 55 66 2 66 -17 0 -32 -6 -35 -15 -8 -19 -24 -20 -24 0 0 41 87 45 107 5z
m168 20 c-3 -5 -23 -10 -44 -10 -33 0 -39 -4 -43 -25 -5 -23 -2 -25 28 -25 36
0 64 -28 64 -65 0 -11 -7 -31 -16 -43 -28 -40 -105 -20 -103 26 0 14 3 13 16
-5 23 -34 71 -31 79 4 10 38 -7 58 -50 58 -19 0 -36 3 -36 8 0 4 0 25 0 47 l0
40 56 0 c34 0 53 -4 49 -10z m-11576 -26 c11 -15 18 -31 14 -37 -3 -5 -12 2
-20 17 -17 33 -76 38 -93 7 -14 -27 -13 -114 2 -129 21 -21 74 -15 91 11 8 12
18 19 21 16 3 -3 -3 -18 -15 -32 -28 -37 -80 -37 -108 -1 -31 39 -29 117 4
149 33 34 77 33 104 -1z m591 16 c0 -5 -4 -10 -10 -10 -5 0 -10 5 -10 10 0 6
5 10 10 10 6 0 10 -4 10 -10z m370 -10 c20 -20 26 -40 12 -40 -4 0 -13 9 -20
20 -23 37 -102 18 -87 -22 3 -8 28 -22 55 -32 58 -21 75 -53 45 -86 -33 -37
-125 -15 -125 28 0 14 4 12 18 -6 15 -19 26 -23 58 -20 32 2 40 7 42 25 3 19
-6 27 -51 47 -57 25 -73 46 -57 76 19 35 80 40 110 10z m475 10 c3 -5 -1 -10
-9 -10 -9 0 -16 5 -16 10 0 6 4 10 9 10 6 0 13 -4 16 -10z m-395 -20 c0 -12 7
-20 18 -21 16 -1 16 -2 0 -6 -24 -6 -27 -123 -3 -123 8 0 15 -4 15 -10 0 -16
-37 -11 -44 6 -3 9 -6 40 -6 70 0 44 -3 54 -17 55 -17 1 -17 2 0 6 9 2 17 13
17 24 0 10 5 19 10 19 6 0 10 -9 10 -20z m-3587 -32 c55 -64 -31 -151 -101
-102 -16 11 -22 25 -22 53 0 72 76 103 123 49z m355 -66 l3 -92 -26 0 c-25 0
-25 0 -25 88 0 92 4 105 30 100 12 -3 16 -22 18 -96z m198 73 c26 -26 25 -45
-2 -45 -9 0 -22 7 -31 16 -22 21 -55 14 -72 -18 -13 -23 -13 -30 -1 -52 15
-29 59 -36 79 -12 11 14 51 11 51 -3 0 -12 -44 -48 -66 -55 -52 -16 -114 37
-114 97 0 83 99 129 156 72z m205 -4 c76 -77 -8 -202 -105 -156 -92 44 -62
185 39 185 27 0 44 -8 66 -29z m115 18 c4 -8 9 -8 17 0 13 13 56 14 74 3 20
-13 33 -61 33 -123 0 -56 -1 -59 -25 -59 -24 0 -25 2 -25 69 0 61 -2 70 -20
76 -36 11 -50 -12 -50 -81 0 -62 -1 -64 -25 -64 -25 0 -25 1 -25 88 0 49 3 92
7 95 10 11 31 8 39 -4z m285 -10 c20 -20 20 -22 4 -31 -11 -7 -21 -6 -28 1 -6
6 -21 11 -34 11 -33 0 -29 -28 5 -36 44 -10 72 -33 72 -58 0 -57 -94 -83 -132
-36 -17 21 -18 24 -3 33 11 6 22 4 35 -8 21 -19 55 -17 55 4 0 7 -18 19 -39
26 -21 8 -43 20 -47 27 -40 62 59 120 112 67z m197 1 c12 -12 22 -25 22 -31 0
-18 -31 -22 -49 -5 -22 20 -40 20 -63 -1 -35 -31 -15 -93 29 -93 15 0 34 7 42
14 11 10 21 12 31 6 20 -12 3 -40 -34 -58 -33 -17 -88 -1 -111 31 -18 26 -19
96 -2 118 33 42 100 52 135 19z m199 5 c26 -19 47 -77 38 -107 -18 -56 -69
-85 -121 -68 -43 15 -64 45 -64 93 0 75 87 124 147 82z m123 -55 c0 -57 3 -71
19 -79 33 -18 50 7 53 79 3 59 5 65 26 68 21 3 22 1 22 -92 0 -89 -1 -96 -20
-96 -11 0 -20 5 -20 10 0 6 -11 3 -25 -6 -21 -14 -30 -14 -55 -4 -34 14 -50
56 -50 131 0 50 5 59 32 59 16 0 18 -9 18 -70z m11130 50 c0 -5 -4 -10 -10
-10 -5 0 -10 5 -10 10 0 6 5 10 10 10 6 0 10 -4 10 -10z m-10140 -10 c0 -5
-10 -10 -22 -12 -21 -3 -23 -9 -26 -65 -4 -88 -22 -79 -22 10 l0 73 35 1 c19
1 35 -3 35 -7z m124 -12 c28 -39 21 -48 -39 -48 -58 0 -68 -10 -42 -42 16 -21
53 -32 62 -18 3 5 11 10 17 10 7 0 6 -6 -2 -15 -18 -21 -64 -19 -85 5 -42 46
-11 130 46 130 17 0 34 -8 43 -22z m140 0 c18 -25 22 -128 6 -128 -5 0 -10 4
-10 9 0 5 -14 4 -30 -2 -22 -8 -35 -9 -48 -1 -43 28 -13 84 45 84 27 0 34 4
31 18 -4 20 -55 29 -71 13 -20 -20 -30 -11 -12 9 24 27 70 26 89 -2z m77 -40
l23 -62 20 62 c11 34 23 62 28 62 4 0 8 -4 8 -9 0 -18 -48 -135 -57 -138 -5
-2 -20 27 -34 64 -13 37 -25 71 -27 75 -2 4 1 8 6 8 5 0 20 -28 33 -62z m129
-13 c0 -43 -4 -75 -10 -75 -6 0 -10 32 -10 75 0 43 4 75 10 75 6 0 10 -32 10
-75z m144 53 c28 -39 21 -48 -39 -48 -58 0 -68 -10 -42 -42 16 -21 53 -32 62
-18 3 5 11 10 17 10 7 0 6 -6 -2 -15 -18 -21 -64 -19 -85 5 -42 46 -11 130 46
130 17 0 34 -8 43 -22z m388 -40 c3 -61 4 -63 32 -66 37 -5 46 10 46 76 0 28
5 52 10 52 6 0 10 -31 10 -73 l0 -73 -45 -2 c-61 -2 -75 14 -75 89 0 79 18 76
22 -3z m308 -13 c0 -43 -4 -75 -10 -75 -6 0 -10 32 -10 75 0 43 4 75 10 75 6
0 10 -32 10 -75z m150 55 c12 -12 20 -33 20 -55 0 -63 -67 -99 -112 -58 -23
21 -24 89 -1 115 21 24 68 23 93 -2z m8680 -110 c0 -5 -4 -10 -10 -10 -5 0
-10 5 -10 10 0 6 5 10 10 10 6 0 10 -4 10 -10z"/>
<path d="M13242 538 c-14 -14 -16 -66 -3 -86 5 -8 21 -12 37 -10 28 3 29 5 29
53 0 46 -2 50 -25 53 -14 2 -31 -3 -38 -10z"/>
<path d="M4412 528 c-14 -14 -16 -66 -3 -86 5 -8 21 -12 37 -10 28 3 29 5 29
53 0 46 -2 50 -25 53 -14 2 -31 -3 -38 -10z"/>
<path d="M13826 585 c-13 -36 -6 -65 19 -77 22 -10 29 -9 47 10 18 18 20 26
12 49 -7 21 -17 29 -40 31 -22 2 -33 -2 -38 -13z"/>
<path d="M14007 535 c-15 -25 -27 -48 -27 -50 0 -3 14 -5 30 -5 29 0 30 1 30
50 0 28 -1 50 -3 50 -1 0 -14 -20 -30 -45z"/>
<path d="M14147 593 c-13 -12 -7 -42 11 -51 19 -11 62 1 62 17 0 26 -15 41
-39 41 -15 0 -31 -3 -34 -7z"/>
<path d="M14148 500 c-32 -26 -14 -55 33 -55 31 0 34 3 34 29 0 39 -35 53 -67
26z"/>
<path d="M1234 516 c-14 -22 -14 -31 -4 -55 19 -46 74 -49 91 -4 23 62 -51
113 -87 59z"/>
<path d="M2044 514 c-34 -50 17 -111 65 -78 40 28 19 104 -29 104 -11 0 -27
-12 -36 -26z"/>
<path d="M3290 520 c-10 -19 -8 -20 36 -20 38 0 45 3 40 16 -3 9 -6 18 -6 20
0 2 -13 4 -30 4 -19 0 -33 -7 -40 -20z"/>
<path d="M3452 479 c-30 -11 -25 -43 6 -47 28 -4 52 14 52 39 0 21 -20 24 -58
8z"/>
<path d="M3780 520 c-10 -19 -8 -20 36 -20 38 0 45 3 40 16 -3 9 -6 18 -6 20
0 2 -13 4 -30 4 -19 0 -33 -7 -40 -20z"/>
<path d="M4632 528 c-7 -7 -12 -26 -12 -43 0 -36 15 -55 45 -55 30 0 45 19 45
55 0 36 -15 55 -45 55 -12 0 -26 -5 -33 -12z"/>
</g>
</svg>
