<?xml version="1.0" standalone="no"?>
<!DOCTYPE svg PUBLIC "-//W3C//DTD SVG 20010904//EN"
 "http://www.w3.org/TR/2001/REC-SVG-20010904/DTD/svg10.dtd">
<svg version="1.0" xmlns="http://www.w3.org/2000/svg"
 width="1500.000000pt" height="1601.000000pt" viewBox="0 0 1500.000000 1601.000000"
 preserveAspectRatio="xMidYMid meet">

<g transform="translate(0.000000,1601.000000) scale(0.100000,-0.100000)"
fill="#000000" stroke="none">
<path d="M5945 15253 c-71 -10 -265 -57 -330 -80 -105 -38 -224 -100 -427
-222 l-183 -110 -20 27 c-175 236 -210 262 -352 270 -79 4 -95 2 -91 -9 3 -8
-6 -27 -18 -42 -13 -16 -24 -39 -24 -53 0 -19 -5 -23 -21 -21 -27 4 -39 24
-39 65 0 36 1 36 -36 22 -25 -10 -26 -14 -21 -55 4 -42 3 -46 -22 -51 -14 -3
-31 -7 -38 -9 -7 -2 -20 9 -30 25 -9 17 -21 30 -26 30 -5 0 -51 -25 -102 -55
-267 -157 -489 -378 -589 -585 -36 -75 -41 -92 -41 -160 0 -84 11 -109 90
-216 l45 -62 -74 -55 c-203 -153 -360 -356 -434 -560 -47 -129 -108 -432 -168
-827 -17 -111 -19 -119 -84 -230 -246 -418 -429 -850 -536 -1260 -14 -52 -28
-97 -32 -101 -4 -3 -63 -25 -132 -49 -233 -80 -267 -101 -290 -180 -21 -73
-73 -1056 -150 -2850 -11 -256 -27 -645 -37 -865 -11 -258 -17 -599 -18 -960
l0 -560 27 -160 c16 -88 47 -247 70 -352 37 -174 44 -193 62 -194 18 -1 18 -2
3 -6 -22 -6 -27 26 64 -356 169 -706 243 -936 380 -1195 59 -113 163 -276 197
-311 9 -9 30 -35 47 -56 80 -107 223 -241 435 -408 47 -38 224 -144 312 -188
233 -117 599 -220 1153 -323 986 -184 2910 -449 3970 -547 297 -27 382 -31
670 -32 315 -1 337 1 476 26 692 125 1267 467 1686 1002 192 246 333 534 628
1281 128 323 379 969 420 1079 12 33 73 191 135 350 324 838 858 2254 925
2450 55 163 54 171 -134 954 -69 287 -71 297 -71 425 0 145 -20 383 -49 579
l-19 129 64 236 c89 327 188 721 220 877 34 163 38 374 10 525 -45 247 -198
873 -255 1048 -17 52 -31 98 -31 103 0 5 11 9 24 9 46 0 454 271 474 316 31
67 6 165 -90 357 -188 377 -543 850 -690 920 -67 32 -94 24 -234 -64 -230
-144 -314 -208 -331 -247 -8 -20 -13 -48 -11 -64 3 -15 3 -28 2 -28 -2 0 -55
65 -118 144 -63 79 -121 152 -130 162 -255 313 -323 382 -461 475 -117 78
-248 142 -360 174 -162 46 -553 110 -1500 244 -313 45 -593 85 -622 90 l-52 8
-4 -31 -4 -31 -1 31 c-2 29 -5 32 -49 38 -1742 242 -2656 356 -2859 356 l-83
0 -4 -37 -4 -38 -1 38 c-1 23 -7 36 -14 36 -7 -1 -26 -4 -43 -6z m3062 -515
c-2 -13 -4 -3 -4 22 0 25 2 35 4 23 2 -13 2 -33 0 -45z m-3000 -115 c-3 -10
-5 -4 -5 12 0 17 2 24 5 18 2 -7 2 -21 0 -30z m3000 -250 c-3 -10 -5 -4 -5 12
0 17 2 24 5 18 2 -7 2 -21 0 -30z m-3000 -95 c-3 -7 -5 -2 -5 12 0 14 2 19 5
13 2 -7 2 -19 0 -25z m-2009 -155 c-10 -2 -26 -2 -35 0 -10 3 -2 5 17 5 19 0
27 -2 18 -5z m885 0 c-13 -2 -33 -2 -45 0 -13 2 -3 4 22 4 25 0 35 -2 23 -4z
m720 0 c-13 -2 -35 -2 -50 0 -16 2 -5 4 22 4 28 0 40 -2 28 -4z m4124 0 c-20
-2 -52 -2 -70 0 -17 2 0 4 38 4 39 0 53 -2 32 -4z m841 0 c-21 -2 -55 -2 -75
0 -21 2 -4 4 37 4 41 0 58 -2 38 -4z m1190 0 c-10 -2 -26 -2 -35 0 -10 3 -2 5
17 5 19 0 27 -2 18 -5z m-3501 -114 c533 -67 1052 -234 1496 -483 114 -64 75
-49 -86 33 -303 154 -586 260 -902 340 -280 70 -408 91 -790 130 l-90 10 110
-5 c61 -3 178 -14 262 -25z m3750 -231 c-2 -13 -4 -5 -4 17 -1 22 1 32 4 23 2
-10 2 -28 0 -40z m-2137 -324 c0 -2 -9 0 -20 6 -11 6 -20 13 -20 16 0 2 9 0
20 -6 11 -6 20 -13 20 -16z m2137 -781 c-3 -10 -5 -2 -5 17 0 19 2 27 5 18 2
-10 2 -26 0 -35z m-7840 -1075 c-3 -8 -6 -5 -6 6 -1 11 2 17 5 13 3 -3 4 -12
1 -19z m-96 -464 c-117 -559 -134 -639 -138 -628 -4 12 93 495 164 818 32 142
59 254 61 248 1 -5 -38 -202 -87 -438z m4936 194 c-3 -7 -5 -2 -5 12 0 14 2
19 5 13 2 -7 2 -19 0 -25z m-2384 -5 c-7 -2 -19 -2 -25 0 -7 3 -2 5 12 5 14 0
19 -2 13 -5z m197 -23 c80 -10 298 -40 485 -65 187 -25 635 -86 995 -135 360
-50 673 -92 695 -95 22 -3 463 -64 980 -136 517 -71 993 -137 1058 -146 64 -9
117 -20 117 -24 0 -15 116 -30 -1785 232 -1711 236 -2682 373 -2710 384 -23 8
30 4 165 -15z m-2893 -832 c-3 -8 -6 -5 -6 6 -1 11 2 17 5 13 3 -3 4 -12 1
-19z m-920 -110 c-3 -8 -6 -5 -6 6 -1 11 2 17 5 13 3 -3 4 -12 1 -19z m9000 0
c-3 -8 -6 -5 -6 6 -1 11 2 17 5 13 3 -3 4 -12 1 -19z m-6000 -760 c-1 -79 -3
-17 -3 137 0 154 2 218 3 143 2 -75 2 -201 0 -280z m1383 151 c47 1 129 4 183
7 115 6 116 6 96 -94 -18 -93 -16 -104 26 -163 30 -40 43 -50 60 -47 17 4 21
1 18 -13 -5 -19 60 -113 85 -123 11 -5 100 -20 297 -51 11 -2 28 -4 38 -4 9
-1 17 -8 17 -16 0 -16 -6 -17 -145 -20 -50 -1 -96 -5 -103 -9 -7 -4 -12 -4
-12 1 0 4 -42 8 -92 8 -74 0 -323 27 -323 35 0 1 -27 4 -60 6 -33 2 -74 9 -91
15 -18 5 -36 9 -40 8 -16 -4 -104 13 -104 20 0 3 -18 7 -41 8 -23 1 -49 9 -58
17 -10 9 -32 16 -50 16 -18 0 -45 6 -59 14 -15 7 -45 19 -67 25 -73 22 -144
56 -150 71 -3 8 -3 12 0 9 3 -3 21 9 41 27 19 19 39 34 44 34 5 0 10 8 12 18
5 22 -71 132 -91 132 -9 0 -23 5 -31 11 -12 9 -11 10 6 6 12 -2 29 0 39 6 13
7 16 6 11 -2 -10 -16 81 -141 103 -141 10 0 42 17 72 38 46 32 55 45 67 87 8
28 15 51 17 53 8 9 98 18 145 14 30 -3 93 -4 140 -3z m737 -28 c40 -6 102 -17
138 -26 36 -8 79 -15 95 -15 16 0 32 -4 35 -10 3 -5 19 -10 36 -10 35 0 36
-12 13 -125 l-16 -78 40 -56 c21 -31 48 -57 58 -59 10 -1 44 15 75 37 55 40
55 40 73 122 11 51 21 78 26 69 4 -7 12 -10 18 -6 14 8 74 -14 94 -35 16 -16
16 -24 6 -69 -9 -40 -9 -56 0 -71 7 -11 10 -25 6 -31 -4 -6 -3 -8 4 -4 6 3 13
2 17 -4 3 -5 2 -10 -4 -10 -6 0 -8 -6 -5 -13 6 -17 -21 -41 -40 -34 -7 3 -25
0 -38 -7 -14 -8 -49 -17 -79 -21 -30 -4 -63 -9 -74 -11 -11 -2 -52 -6 -92 -8
-53 -3 -76 0 -90 11 -16 13 -16 14 -1 9 10 -3 17 -1 15 4 -1 5 11 20 27 33 36
29 32 55 -21 115 l-38 43 -253 34 c-202 28 -258 33 -275 23 -19 -9 -20 -9 -11
3 7 8 22 60 35 117 l23 103 65 -5 c36 -2 98 -9 138 -15z m3880 -253 c-2 -18
-4 -4 -4 32 0 36 2 50 4 33 2 -18 2 -48 0 -65z m-6390 26 c-3 -3 -12 -4 -19
-1 -8 3 -5 6 6 6 11 1 17 -2 13 -5z m150 -20 c-3 -3 -12 -4 -19 -1 -8 3 -5 6
6 6 11 1 17 -2 13 -5z m70 -10 c-3 -3 -12 -4 -19 -1 -8 3 -5 6 6 6 11 1 17 -2
13 -5z m76 -11 c-7 -2 -19 -2 -25 0 -7 3 -2 5 12 5 14 0 19 -2 13 -5z m70 -10
c-7 -2 -19 -2 -25 0 -7 3 -2 5 12 5 14 0 19 -2 13 -5z m80 -10 c-7 -2 -19 -2
-25 0 -7 3 -2 5 12 5 14 0 19 -2 13 -5z m70 -10 c-7 -2 -21 -2 -30 0 -10 3 -4
5 12 5 17 0 24 -2 18 -5z m70 -10 c-7 -2 -19 -2 -25 0 -7 3 -2 5 12 5 14 0 19
-2 13 -5z m70 -10 c-7 -2 -19 -2 -25 0 -7 3 -2 5 12 5 14 0 19 -2 13 -5z m70
-10 c-7 -2 -19 -2 -25 0 -7 3 -2 5 12 5 14 0 19 -2 13 -5z m80 -10 c-7 -2 -21
-2 -30 0 -10 3 -4 5 12 5 17 0 24 -2 18 -5z m70 -10 c-7 -2 -21 -2 -30 0 -10
3 -4 5 12 5 17 0 24 -2 18 -5z m80 -10 c-7 -2 -21 -2 -30 0 -10 3 -4 5 12 5
17 0 24 -2 18 -5z m70 -10 c-7 -2 -21 -2 -30 0 -10 3 -4 5 12 5 17 0 24 -2 18
-5z m75 -10 c-10 -2 -26 -2 -35 0 -10 3 -2 5 17 5 19 0 27 -2 18 -5z m75 -10
c-7 -2 -21 -2 -30 0 -10 3 -4 5 12 5 17 0 24 -2 18 -5z m70 -10 c-7 -2 -21 -2
-30 0 -10 3 -4 5 12 5 17 0 24 -2 18 -5z m70 -10 c-7 -2 -21 -2 -30 0 -10 3
-4 5 12 5 17 0 24 -2 18 -5z m75 -10 c-10 -2 -26 -2 -35 0 -10 3 -2 5 17 5 19
0 27 -2 18 -5z m75 -10 c-7 -2 -21 -2 -30 0 -10 3 -4 5 12 5 17 0 24 -2 18 -5z
m70 -10 c-7 -2 -21 -2 -30 0 -10 3 -4 5 12 5 17 0 24 -2 18 -5z m75 -10 c-10
-2 -26 -2 -35 0 -10 3 -2 5 17 5 19 0 27 -2 18 -5z m75 -10 c-7 -2 -21 -2 -30
0 -10 3 -4 5 12 5 17 0 24 -2 18 -5z m70 -10 c-7 -2 -21 -2 -30 0 -10 3 -4 5
12 5 17 0 24 -2 18 -5z m75 -10 c-10 -2 -26 -2 -35 0 -10 3 -2 5 17 5 19 0 27
-2 18 -5z m799 1 c-3 -3 -12 -4 -19 -1 -8 3 -5 6 6 6 11 1 17 -2 13 -5z m-724
-11 c-7 -2 -21 -2 -30 0 -10 3 -4 5 12 5 17 0 24 -2 18 -5z m70 -10 c-7 -2
-21 -2 -30 0 -10 3 -4 5 12 5 17 0 24 -2 18 -5z m70 -10 c-7 -2 -21 -2 -30 0
-10 3 -4 5 12 5 17 0 24 -2 18 -5z m70 -10 c-7 -2 -19 -2 -25 0 -7 3 -2 5 12
5 14 0 19 -2 13 -5z m80 -10 c-7 -2 -21 -2 -30 0 -10 3 -4 5 12 5 17 0 24 -2
18 -5z m70 -10 c-7 -2 -21 -2 -30 0 -10 3 -4 5 12 5 17 0 24 -2 18 -5z m70
-10 c-7 -2 -19 -2 -25 0 -7 3 -2 5 12 5 14 0 19 -2 13 -5z m70 -10 c-7 -2 -19
-2 -25 0 -7 3 -2 5 12 5 14 0 19 -2 13 -5z m984 -105 c-2 -24 -4 -7 -4 37 0
44 2 63 4 43 2 -21 2 -57 0 -80z m-910 96 c-3 -3 -12 -4 -19 -1 -8 3 -5 6 6 6
11 1 17 -2 13 -5z m70 -10 c-3 -3 -12 -4 -19 -1 -8 3 -5 6 6 6 11 1 17 -2 13
-5z m76 -11 c-7 -2 -19 -2 -25 0 -7 3 -2 5 12 5 14 0 19 -2 13 -5z m144 -19
c-3 -3 -12 -4 -19 -1 -8 3 -5 6 6 6 11 1 17 -2 13 -5z m3240 -610 c-3 -3 -12
-4 -19 -1 -8 3 -5 6 6 6 11 1 17 -2 13 -5z m1151 -1 c-10 -2 -26 -2 -35 0 -10
3 -2 5 17 5 19 0 27 -2 18 -5z m-3771 -1780 c-2 -16 -4 -5 -4 22 0 28 2 40 4
28 2 -13 2 -35 0 -50z m0 -65 c-3 -8 -6 -5 -6 6 -1 11 2 17 5 13 3 -3 4 -12 1
-19z m-2929 -30 l67 -2 -67 -3 -68 -4 -2 -32 -1 -32 -4 33 -4 32 -107 2 -107
2 108 3 c93 3 107 6 108 21 1 16 2 16 6 0 4 -15 17 -18 71 -20z m-370 -5 c-15
-2 -42 -2 -60 0 -18 2 -6 4 27 4 33 0 48 -2 33 -4z m3015 0 c-40 -2 -107 -2
-150 0 -43 1 -10 3 72 3 83 0 118 -2 78 -3z m185 0 c-10 -2 -28 -2 -40 0 -13
2 -5 4 17 4 22 1 32 -1 23 -4z m99 -15 c-3 -8 -6 -5 -6 6 -1 11 2 17 5 13 3
-3 4 -12 1 -19z m3041 15 l-37 -4 -4 -92 -3 -92 -2 98 -2 97 43 -2 42 -1 -37
-4z m-6071 -46 c4 -7 0 -8 -11 -4 -10 4 -22 7 -27 7 -5 0 -9 4 -9 9 0 12 38 2
47 -12z m2662 8 c-17 -17 -466 -123 -594 -141 -79 -11 -49 2 50 20 111 21 369
82 450 106 59 18 103 25 94 15z m-2594 -25 c3 -5 1 -10 -4 -10 -6 0 -11 5 -11
10 0 6 2 10 4 10 3 0 8 -4 11 -10z m-38 -52 c-3 -8 -6 -5 -6 6 -1 11 2 17 5
13 3 -3 4 -12 1 -19z m480 -54 c-3 -3 -12 -4 -19 -1 -8 3 -5 6 6 6 11 1 17 -2
13 -5z m258 -24 c55 -5 143 -15 195 -21 140 -17 399 -20 530 -7 63 6 133 12
155 13 22 1 83 5 135 8 52 4 127 9 165 12 66 4 67 3 20 -5 -175 -32 -351 -44
-655 -44 -320 0 -527 14 -710 49 l-75 15 70 -5 c39 -3 115 -10 170 -15z
m-1732 -351 c28 -12 207 -332 207 -368 0 -12 -34 -84 -76 -162 -64 -118 -79
-140 -97 -137 -23 3 -96 101 -96 130 -1 9 11 39 25 65 22 41 25 58 22 115 -3
55 -9 75 -34 110 -61 88 -178 118 -270 70 -82 -42 -119 -113 -112 -212 5 -74
40 -129 105 -167 41 -24 58 -28 119 -27 l70 1 38 -58 c23 -35 36 -67 34 -81
-3 -23 -3 -23 -188 -26 -138 -2 -190 1 -203 10 -22 17 -197 343 -197 368 0 26
174 348 197 366 23 17 419 20 456 3z m465 -28 c5 -32 -23 -54 -49 -40 -19 10
-26 49 -12 63 4 4 19 6 33 4 18 -2 26 -10 28 -27z m2102 -61 c0 -36 3 -40 25
-40 20 0 25 -5 25 -25 0 -20 -5 -25 -25 -25 -24 0 -25 -2 -25 -65 0 -61 2 -66
25 -75 18 -7 25 -17 25 -35 0 -21 -5 -25 -30 -25 -19 0 -40 9 -55 25 -22 21
-25 33 -25 100 0 68 -2 75 -20 75 -15 0 -20 7 -20 25 0 14 4 25 9 25 18 0 41
32 41 56 0 19 5 24 25 24 23 0 25 -4 25 -40z m-2105 -160 l0 -125 -30 0 -30 0
4 120 c2 66 5 124 8 128 3 5 15 7 26 5 21 -3 22 -8 22 -128z m272 96 c28 -33
29 -40 2 -53 -18 -7 -27 -4 -45 14 -47 47 -109 14 -109 -57 0 -32 6 -47 24
-61 30 -24 52 -24 85 2 53 42 85 7 38 -41 -26 -25 -38 -30 -80 -30 -39 0 -57
6 -81 25 -56 47 -64 133 -19 190 28 36 54 45 112 41 39 -3 55 -9 73 -30z m253
18 c81 -48 80 -185 -2 -230 -13 -8 -40 -13 -61 -14 -99 -1 -158 87 -121 180
29 72 117 103 184 64z m288 10 c38 -11 52 -53 52 -159 l0 -96 -27 3 c-28 3
-28 3 -33 98 -5 92 -6 95 -32 104 -22 8 -32 6 -47 -8 -17 -15 -21 -34 -23
-105 -3 -86 -3 -86 -30 -89 l-28 -3 0 125 0 126 30 0 c17 0 30 -5 30 -11 0 -5
10 -3 22 5 24 17 49 20 86 10z m266 -15 c14 -11 26 -26 26 -34 0 -23 -32 -27
-55 -5 -25 24 -48 26 -65 5 -18 -22 1 -40 55 -54 73 -18 98 -79 50 -126 -43
-44 -136 -30 -165 25 -16 30 31 39 59 11 25 -25 44 -27 61 -6 19 23 8 36 -45
54 -60 20 -85 54 -70 98 19 52 100 70 149 32z m283 -12 c28 -28 26 -57 -5 -57
-10 0 -27 9 -37 20 -23 25 -56 26 -86 1 -18 -14 -24 -29 -24 -61 0 -32 6 -47
24 -61 30 -25 66 -24 92 2 28 28 75 19 59 -10 -30 -57 -109 -78 -170 -46 -79
41 -80 186 -2 230 41 23 117 14 149 -18z m253 18 c38 -19 60 -63 60 -115 0
-79 -49 -130 -125 -130 -82 0 -131 57 -123 142 10 96 103 147 188 103z m177
-85 c1 -67 5 -87 19 -97 24 -17 44 -16 66 4 15 13 18 31 18 100 l0 83 30 0 30
0 0 -125 0 -125 -24 0 c-14 0 -28 5 -31 10 -4 7 -12 7 -25 0 -34 -18 -85 -12
-114 15 -25 23 -26 29 -26 125 l0 101 28 -3 c27 -3 27 -3 29 -88z m-2387 -55
c16 -15 34 -40 40 -56 25 -59 -12 -138 -76 -165 -44 -18 -68 -18 -111 3 -92
43 -98 179 -10 234 46 29 118 22 157 -16z m1100 -329 l0 -103 -45 -1 c-27 -1
-50 5 -60 14 -52 53 -5 155 60 130 12 -4 15 3 15 29 0 24 5 35 15 35 12 0 15
-18 15 -104z m-440 84 c0 -5 -22 -10 -50 -10 l-50 0 0 -35 c0 -34 1 -35 40
-35 22 0 40 -4 40 -10 0 -5 -18 -10 -40 -10 l-40 0 0 -45 c0 -33 -4 -45 -15
-45 -12 0 -15 18 -15 100 l0 100 65 0 c37 0 65 -4 65 -10z m124 -62 c30 -43
21 -58 -34 -58 -38 0 -50 -4 -50 -15 0 -24 43 -39 69 -26 17 9 21 9 21 -3 0
-16 -21 -26 -55 -26 -28 0 -65 43 -65 75 0 62 82 100 114 53z m145 12 c10 -6
16 -31 19 -74 4 -56 2 -66 -12 -66 -13 0 -16 11 -16 59 0 43 -4 60 -15 65 -33
12 -45 -4 -45 -65 0 -46 -3 -59 -15 -59 -12 0 -15 15 -15 73 l0 73 43 1 c23 1
49 -2 56 -7z m241 -45 l17 -50 17 53 c10 28 24 52 31 52 10 0 7 -20 -15 -84
-36 -107 -46 -126 -70 -126 -26 0 -25 12 0 28 26 16 25 44 -5 117 -30 71 -29
67 -8 63 9 -2 23 -23 33 -53z m133 28 l14 -26 18 26 c9 15 24 27 32 27 11 0
10 -8 -8 -37 l-23 -36 22 -39 c19 -31 20 -38 7 -38 -8 0 -21 11 -27 25 -6 14
-14 25 -18 25 -4 0 -12 -11 -18 -25 -6 -14 -18 -25 -27 -25 -20 0 -19 6 7 43
l22 30 -22 39 c-18 31 -20 38 -8 38 9 0 22 -12 29 -27z m217 20 c0 -3 -18 -30
-40 -59 -22 -29 -40 -56 -40 -59 0 -3 18 -5 40 -5 22 0 40 -4 40 -10 0 -6 -27
-10 -60 -10 -33 0 -60 4 -60 8 0 5 18 33 41 63 l40 54 -40 3 c-63 5 -48 22 19
22 33 0 60 -3 60 -7z m4928 -760 c-10 -2 -26 -2 -35 0 -10 3 -2 5 17 5 19 0
27 -2 18 -5z"/>
<path d="M5889 5891 c-18 -14 -24 -29 -24 -61 0 -32 6 -47 24 -61 52 -42 111
-9 111 61 0 70 -59 103 -111 61z"/>
<path d="M6987 5898 c-24 -19 -35 -59 -26 -93 25 -87 130 -68 133 24 0 34 -4
47 -23 62 -27 22 -60 24 -84 7z"/>
<path d="M5892 5488 c-17 -17 -15 -73 3 -88 8 -6 23 -9 35 -5 16 5 20 15 20
50 0 30 -5 45 -16 49 -22 8 -28 8 -42 -6z"/>
<path d="M5592 5488 c-20 -20 -14 -28 23 -28 19 0 35 4 35 8 0 12 -22 32 -35
32 -6 0 -16 -5 -23 -12z"/>
<path d="M0 505 l0 -505 7500 0 7500 0 0 505 0 505 -7500 0 -7500 0 0 -505z
m683 163 c19 -29 48 -79 66 -110 l32 -58 -48 -82 c-27 -46 -56 -84 -64 -86 -9
-1 -24 13 -36 35 -21 38 -21 38 -2 73 23 43 24 83 3 120 -47 79 -168 79 -209
0 -41 -79 8 -167 98 -177 40 -5 50 -11 68 -40 34 -55 23 -63 -83 -63 -51 0
-98 4 -104 8 -12 8 -124 203 -124 216 0 4 27 54 61 112 l61 104 124 0 124 0
33 -52z m2094 -280 c-1 -62 -3 -12 -3 112 0 124 2 174 3 113 2 -62 2 -164 0
-225z m-1837 247 c0 -20 -5 -25 -25 -25 -20 0 -25 5 -25 25 0 20 5 25 25 25
20 0 25 -5 25 -25z m1550 -30 c0 -18 5 -25 20 -25 13 0 20 -7 20 -19 0 -10 -9
-21 -20 -24 -16 -4 -20 -14 -20 -52 0 -38 4 -48 20 -52 11 -3 20 -14 20 -24 0
-14 -7 -19 -28 -19 -41 0 -52 17 -52 83 0 50 -3 60 -20 64 -11 3 -20 11 -20
19 0 7 9 18 20 24 11 6 20 20 20 30 0 13 7 20 20 20 15 0 20 -7 20 -25z
m10950 -77 l0 -103 -28 -2 c-50 -4 -70 6 -81 40 -23 68 29 131 81 98 16 -10
18 -8 18 29 0 22 2 40 5 40 3 0 5 -46 5 -102z m-9880 -10 l0 -103 -28 -2 c-50
-4 -70 6 -81 40 -23 68 29 131 81 98 16 -10 18 -8 18 29 0 22 2 40 5 40 3 0 5
-46 5 -102z m9730 2 c0 -60 -4 -100 -10 -100 -6 0 -10 40 -10 100 0 60 4 100
10 100 6 0 10 -40 10 -100z m450 90 c0 -5 -20 -10 -45 -10 -43 0 -45 -1 -45
-29 0 -25 3 -28 25 -23 35 6 65 -23 65 -64 0 -39 -22 -64 -56 -64 -25 0 -70
37 -59 48 4 4 12 0 18 -9 21 -27 46 -30 67 -9 23 23 25 39 6 65 -10 14 -21 17
-50 12 -40 -6 -42 -1 -30 62 6 30 9 31 55 31 27 0 49 -4 49 -10z m140 -60 c0
-60 3 -70 18 -71 16 -1 16 -2 0 -6 -11 -3 -18 -14 -18 -29 0 -13 -4 -24 -10
-24 -5 0 -10 11 -10 25 0 23 -4 25 -45 25 -25 0 -45 2 -45 5 0 12 92 145 100
145 6 0 10 -31 10 -70z m151 60 c20 -11 27 -64 9 -75 -7 -4 -5 -14 5 -28 8
-12 15 -28 15 -36 0 -25 -32 -51 -62 -51 -31 0 -73 35 -62 52 5 8 11 5 17 -9
20 -46 91 -34 85 14 -2 20 -12 30 -38 39 -32 11 -33 13 -9 13 33 1 53 24 44
49 -8 29 -41 33 -70 10 -20 -16 -25 -17 -25 -4 0 30 54 45 91 26z m175 -15
c15 -23 15 -27 1 -49 -14 -21 -14 -26 -2 -36 35 -29 3 -90 -47 -90 -26 0 -68
30 -68 49 0 5 8 19 19 32 16 19 16 25 5 37 -32 32 -4 82 46 82 20 0 35 -8 46
-25z m174 15 c0 -5 -20 -10 -45 -10 -43 0 -45 -1 -45 -29 0 -25 3 -28 25 -23
35 6 65 -23 65 -64 0 -39 -22 -64 -56 -64 -25 0 -70 37 -59 48 4 4 12 0 18 -9
21 -27 46 -30 67 -9 23 23 25 39 6 65 -10 14 -21 17 -50 12 -40 -6 -42 -1 -30
62 6 30 9 31 55 31 27 0 49 -4 49 -10z m160 4 c0 -16 -84 -194 -92 -194 -8 0
-3 14 46 123 14 32 26 59 26 62 0 2 -26 6 -57 8 l-58 3 68 2 c37 1 67 -1 67
-4z m134 -10 c38 -37 32 -125 -9 -161 -26 -23 -72 -32 -60 -13 3 6 15 10 25
10 20 0 50 35 50 57 0 10 -4 11 -18 2 -44 -27 -103 22 -87 72 15 47 68 64 99
33z m-11594 -3 l-55 -6 -3 -37 -3 -38 53 -2 53 -1 -50 -6 -50 -6 -3 -47 c-6
-88 -22 -50 -22 52 l0 100 68 -2 67 -1 -55 -6z m-2497 -53 c55 -64 -31 -151
-101 -102 -16 11 -22 25 -22 53 0 72 76 103 123 49z m355 -66 l3 -92 -26 0
c-25 0 -25 0 -25 88 0 92 4 105 30 100 12 -3 16 -22 18 -96z m198 73 c26 -26
25 -45 -2 -45 -9 0 -22 7 -31 16 -22 21 -55 14 -72 -18 -13 -23 -13 -30 -1
-52 15 -30 60 -36 80 -11 14 17 20 18 40 5 12 -8 11 -13 -9 -34 -31 -33 -65
-40 -105 -21 -62 30 -75 107 -27 156 39 38 91 40 127 4z m205 -4 c76 -77 -7
-202 -104 -156 -93 44 -64 185 38 185 27 0 44 -8 66 -29z m115 18 c4 -8 9 -8
17 0 13 13 56 14 74 3 20 -13 33 -61 33 -123 0 -56 -1 -59 -25 -59 -24 0 -25
2 -25 69 0 61 -2 70 -20 76 -36 11 -50 -12 -50 -81 0 -62 -1 -64 -25 -64 -25
0 -25 1 -25 88 0 49 3 92 7 95 10 11 31 8 39 -4z m285 -10 c20 -20 20 -22 4
-31 -11 -7 -21 -6 -28 1 -6 6 -21 11 -34 11 -33 0 -29 -28 5 -36 88 -21 98
-93 15 -118 -25 -8 -78 15 -86 38 -8 21 23 29 44 10 20 -18 54 -15 54 5 0 7
-18 19 -39 26 -21 8 -43 20 -47 27 -40 62 59 120 112 67z m197 1 c12 -12 22
-25 22 -31 0 -19 -31 -21 -50 -4 -25 22 -51 16 -69 -17 -31 -55 31 -106 78
-64 23 21 50 4 35 -21 -20 -32 -60 -46 -99 -33 -45 15 -65 44 -65 96 0 35 5
47 31 68 38 32 86 34 117 6z m199 5 c26 -19 47 -77 38 -107 -18 -56 -69 -85
-121 -68 -43 15 -64 45 -64 93 0 75 87 124 147 82z m123 -49 c0 -74 17 -103
50 -86 15 8 20 24 22 78 3 61 5 67 26 70 21 3 22 1 22 -92 0 -89 -1 -96 -20
-96 -11 0 -20 4 -20 10 0 5 -13 1 -29 -8 -29 -16 -31 -16 -58 4 -49 36 -59
184 -13 184 18 0 20 -7 20 -64z m11250 44 c0 -5 -4 -10 -10 -10 -5 0 -10 5
-10 10 0 6 5 10 10 10 6 0 10 -4 10 -10z m-10256 -16 c9 -8 16 -24 16 -35 0
-16 -7 -19 -50 -19 -43 0 -50 -3 -50 -20 0 -29 43 -54 69 -41 28 15 36 14 21
-4 -7 -8 -25 -15 -40 -15 -33 0 -70 40 -70 75 0 56 69 95 104 59z m68 4 c7
-23 -4 -138 -13 -138 -5 0 -9 34 -9 75 0 67 11 97 22 63z m76 0 c7 -7 11 -38
10 -77 0 -37 -3 -50 -5 -31 -9 93 -12 100 -44 100 -18 0 -28 4 -24 10 9 14 48
13 63 -2z m240 -58 l19 -55 23 63 c12 34 26 62 31 62 12 0 -59 -192 -74 -202
-29 -18 -38 -7 -13 17 14 13 26 26 26 29 0 3 -11 35 -25 72 -27 72 -31 94 -15
78 5 -5 18 -34 28 -64z m130 39 l19 -31 19 31 c10 17 22 31 26 31 13 0 9 -10
-13 -41 l-21 -30 26 -39 c31 -47 18 -54 -15 -9 l-22 31 -19 -31 c-11 -17 -24
-31 -30 -31 -10 0 -6 9 23 51 18 25 17 27 -7 62 -14 21 -21 37 -15 37 5 0 18
-14 29 -31z m212 24 c0 -4 -18 -33 -40 -64 -22 -32 -40 -60 -40 -63 0 -2 21
-7 48 -9 42 -3 41 -4 -15 -5 -35 -1 -63 0 -63 3 0 3 18 30 40 60 22 30 40 59
40 64 0 5 -19 12 -42 14 -37 3 -35 4 15 5 31 1 57 -1 57 -5z m9530 -123 c0 -5
-4 -10 -10 -10 -5 0 -10 5 -10 10 0 6 5 10 10 10 6 0 10 -4 10 -10z"/>
<path d="M13348 525 c-24 -53 26 -109 68 -75 17 15 19 71 2 88 -21 21 -57 14
-70 -13z"/>
<path d="M3468 515 c-24 -53 26 -109 68 -75 17 15 19 71 2 88 -21 21 -57 14
-70 -13z"/>
<path d="M13821 530 l-31 -50 35 0 35 0 0 50 c0 28 -2 50 -4 50 -2 0 -18 -22
-35 -50z"/>
<path d="M14136 598 c-9 -5 -16 -20 -16 -33 0 -31 44 -46 67 -22 31 31 -11 77
-51 55z"/>
<path d="M14129 501 c-41 -33 5 -86 53 -60 26 14 20 59 -9 70 -15 6 -28 3 -44
-10z"/>
<path d="M14612 594 c-39 -27 -23 -84 24 -84 46 0 59 60 19 86 -18 12 -24 11
-43 -2z"/>
<path d="M1234 515 c-14 -21 -14 -30 -4 -54 20 -49 81 -46 94 4 16 62 -56 102
-90 50z"/>
<path d="M2044 514 c-34 -50 17 -111 65 -78 40 28 19 104 -29 104 -11 0 -27
-12 -36 -26z"/>
<path d="M3192 534 c-34 -23 -26 -34 24 -34 49 0 55 12 18 37 -17 11 -23 10
-42 -3z"/>
</g>
</svg>
