<?xml version="1.0" standalone="no"?>
<!DOCTYPE svg PUBLIC "-//W3C//DTD SVG 20010904//EN"
 "http://www.w3.org/TR/2001/REC-SVG-20010904/DTD/svg10.dtd">
<svg version="1.0" xmlns="http://www.w3.org/2000/svg"
 width="1500.000000pt" height="1601.000000pt" viewBox="0 0 1500.000000 1601.000000"
 preserveAspectRatio="xMidYMid meet">

<g transform="translate(0.000000,1601.000000) scale(0.100000,-0.100000)"
fill="#000000" stroke="none">
<path d="M10420 15275 c-7 -8 -29 -19 -50 -25 -47 -13 -44 -4 -105 -295 -51
-243 -179 -804 -226 -987 -19 -76 -30 -146 -31 -200 -1 -71 -2 -76 -7 -33 l-6
50 -29 -120 c-16 -66 -31 -127 -34 -137 -2 -10 3 -18 15 -21 16 -4 16 -5 -2
-6 -18 -1 -28 -32 -84 -249 -36 -136 -95 -354 -131 -484 l-67 -237 33 -11 c30
-10 74 -51 74 -70 0 -4 -10 -12 -23 -17 -19 -9 -26 -8 -35 8 -16 25 -55 34
-82 19 -17 -9 -20 -14 -10 -20 11 -7 11 -16 1 -51 -12 -40 -12 -44 9 -61 29
-23 41 -23 74 3 53 42 85 7 38 -41 -25 -25 -39 -30 -77 -30 -25 0 -59 7 -76
15 -28 15 -29 15 -18 -2 9 -15 7 -34 -9 -87 -15 -48 -18 -75 -12 -87 16 -29
11 -50 -18 -77 -25 -23 -41 -70 -120 -347 -50 -176 -109 -391 -132 -478 -23
-87 -44 -165 -46 -172 -4 -9 5 -15 28 -18 l33 -4 -35 -1 -35 -2 -67 -273 c-37
-149 -111 -449 -164 -665 -53 -216 -99 -391 -101 -388 -13 12 259 1188 303
1312 5 13 4 16 -4 9 -6 -5 -36 -111 -67 -235 -31 -124 -60 -242 -66 -262 -7
-29 -15 -38 -31 -38 -21 0 -21 -1 -4 -13 30 -22 12 -53 -37 -66 -34 -8 -47
-19 -68 -53 -77 -125 -79 -127 -95 -121 -13 5 -15 15 -10 50 3 23 4 43 1 43
-12 0 -55 -171 -66 -263 -11 -99 -4 -232 16 -304 3 -10 -2 -2 -11 17 -28 60
-53 218 -64 405 -6 99 -14 195 -16 213 -6 38 -48 87 -84 98 -24 6 -24 6 -8
-12 40 -46 44 -118 4 -85 -15 13 -36 7 -36 -9 0 -5 -11 -35 -25 -66 -23 -53
-27 -56 -43 -42 -9 9 -22 14 -28 11 -14 -5 -24 41 -18 82 4 28 4 29 -5 5 -5
-14 -19 -113 -31 -220 -12 -107 -23 -197 -25 -199 -5 -5 -4 -7 -51 139 -45
143 -105 261 -153 300 -48 41 -60 38 -18 -4 19 -19 39 -48 45 -66 l11 -31 -30
25 c-40 34 -45 33 -53 -10 -9 -47 -30 -53 -65 -19 l-29 27 -9 -28 -9 -27 -27
46 c-15 25 -27 50 -27 56 0 6 -6 11 -14 11 -23 0 -58 -85 -70 -170 l-11 -79
-48 54 c-26 29 -62 64 -80 76 -27 19 -25 15 16 -29 26 -28 47 -54 47 -57 0 -3
-20 7 -43 24 l-44 30 -20 -27 -21 -27 -54 29 c-49 26 -57 27 -79 15 -13 -8
-27 -18 -31 -24 -4 -6 -8 -2 -8 8 0 9 -4 17 -9 17 -5 0 -17 8 -26 17 -16 16
-18 15 -36 -8 -23 -29 -49 -111 -49 -154 0 -42 -7 -47 -39 -28 -24 14 -23 13
5 -13 58 -55 60 -67 5 -33 -44 28 -55 31 -72 21 -27 -17 -61 -15 -117 7 -44
18 -52 18 -77 5 -32 -17 -77 -18 -92 -3 -24 24 -64 -81 -65 -176 -1 -39 -6
-65 -12 -65 -6 0 3 -9 20 -19 18 -11 35 -25 39 -32 6 -8 4 -10 -5 -4 -7 5 -52
9 -99 10 -47 1 -109 5 -136 9 -43 7 -56 5 -89 -15 -31 -18 -42 -20 -57 -11
-16 10 -21 8 -34 -12 -36 -55 -44 -136 -22 -224 10 -36 11 -53 3 -56 -6 -2 -3
-5 6 -5 25 -1 88 -33 88 -44 0 -6 -54 -8 -140 -5 -125 5 -142 3 -171 -14 -23
-14 -34 -16 -39 -8 -14 23 -45 5 -68 -40 -33 -63 -27 -154 16 -238 26 -53 28
-62 13 -65 -9 -3 -3 -5 12 -6 15 0 60 -9 100 -18 60 -14 68 -18 47 -24 -14 -4
-79 -8 -145 -8 -96 -1 -129 -5 -164 -21 -56 -26 -59 -25 -31 5 29 31 14 32
-30 2 -45 -30 -80 -98 -80 -156 0 -52 34 -133 80 -191 22 -27 27 -40 18 -44
-7 -3 3 -4 22 -1 19 2 96 -2 170 -9 132 -13 133 -13 53 -15 -45 0 -115 -5
-155 -10 -164 -21 -181 -22 -168 -6 36 43 -71 -9 -117 -57 -40 -41 -53 -76
-53 -136 1 -62 27 -118 84 -178 25 -26 46 -49 46 -50 0 -2 -27 -17 -61 -35
-107 -57 -159 -145 -145 -243 8 -51 68 -140 115 -171 30 -20 40 -35 22 -35
-20 0 -111 -94 -131 -136 -18 -36 -21 -58 -18 -109 5 -74 36 -128 104 -180
l41 -31 -40 -45 c-54 -60 -77 -113 -77 -179 0 -73 26 -125 89 -182 l52 -47
-35 -51 c-83 -121 -70 -243 36 -335 l45 -39 -33 -49 c-18 -27 -38 -65 -44 -85
-13 -48 -13 -102 1 -102 5 0 7 -4 4 -10 -11 -17 25 -78 71 -120 l45 -41 -26
-31 c-45 -54 -65 -103 -65 -163 0 -67 22 -114 79 -169 l40 -39 -39 -38 c-55
-53 -74 -94 -74 -159 -1 -63 32 -129 84 -173 16 -14 30 -28 30 -31 0 -3 -20
-19 -44 -35 -47 -33 -96 -114 -96 -160 0 -55 22 -104 71 -154 27 -28 48 -51
46 -52 -1 -1 -20 -12 -42 -25 -89 -52 -125 -102 -125 -175 0 -61 22 -105 76
-155 24 -22 44 -43 44 -45 0 -3 -10 -5 -22 -5 -22 0 -64 -20 -43 -20 5 0 -8
-12 -28 -26 -21 -14 -41 -23 -44 -20 -3 3 10 14 28 25 39 24 32 28 -10 7 -41
-22 -91 -83 -93 -114 -4 -88 11 -122 87 -190 l57 -50 -64 5 c-80 7 -135 -8
-176 -48 -62 -61 -52 -149 26 -227 51 -51 54 -53 182 -151 47 -35 90 -69 95
-74 24 -23 -167 83 -254 141 -77 51 -104 64 -136 64 -38 1 -113 -28 -102 -39
3 -2 14 0 25 6 27 14 75 14 107 -1 38 -17 30 -26 -19 -21 -25 3 -53 0 -67 -7
-17 -10 -24 -10 -27 -1 -7 20 -41 12 -47 -11 -19 -89 -14 -99 108 -221 61 -62
137 -149 169 -192 54 -77 128 -212 128 -234 0 -19 -24 -12 -75 23 -88 61 -102
77 -125 151 -50 156 -138 296 -215 340 -81 48 -183 27 -220 -45 -15 -28 -16
-29 -50 -14 -45 18 -115 19 -115 0 0 -7 9 -16 20 -19 26 -7 26 -27 0 -27 -16
0 -20 -7 -22 -37 -1 -37 -1 -37 -5 -5 -5 34 -13 38 -44 22 -33 -18 -23 19 11
38 30 17 42 39 16 29 -8 -3 -19 0 -25 7 -6 7 -28 21 -48 30 -29 13 -43 29 -59
66 -23 51 -81 95 -147 110 l-32 8 31 1 c26 1 35 7 48 35 36 75 7 150 -73 195
-33 18 -58 23 -114 24 -100 0 -184 -12 -166 -25 10 -7 6 -8 -12 -4 -30 7 -103
-13 -207 -56 l-74 -31 -64 18 c-35 9 -67 21 -70 27 -3 5 7 19 23 31 147 114
200 178 227 271 71 243 125 852 126 1407 l0 157 26 17 c71 46 141 148 190 272
l28 73 55 15 c31 9 78 26 105 38 l50 22 -105 6 -104 5 110 2 111 2 65 68 c128
131 119 107 121 315 l2 182 6 -173 5 -174 61 89 c122 176 228 370 272 498 101
296 168 858 175 1458 l3 227 -126 2 -125 2 123 3 124 4 -7 72 c-8 88 -29 198
-49 254 -19 55 -77 174 -93 190 -6 7 -21 28 -32 47 -28 45 -79 83 -124 91
l-37 7 0 -51 c0 -28 -2 -51 -5 -51 -2 0 -19 9 -37 20 -18 11 -50 20 -70 20
-21 0 -38 5 -38 11 0 5 -4 7 -10 4 -6 -4 -10 -118 -10 -310 l0 -304 98 -4 97
-3 -97 -2 -98 -2 -3 -307 -2 -308 -3 307 -2 307 -133 4 -132 3 133 2 132 2 0
290 c0 160 -2 290 -5 290 -2 0 -38 -20 -78 -45 -41 -25 -80 -45 -86 -45 -7 0
-12 24 -13 63 -3 101 -1 118 21 148 l22 29 -23 9 c-29 11 -77 23 -60 15 18 -8
15 -34 -5 -34 -9 0 -32 -14 -50 -32 -18 -17 -34 -30 -35 -27 -2 2 -12 22 -23
43 -11 22 -26 42 -34 44 -8 3 -11 0 -7 -7 5 -7 1 -9 -9 -5 -8 4 -21 1 -28 -5
-27 -22 -76 -28 -802 -96 -33 -4 -76 -7 -95 -8 -28 -2 -38 -8 -49 -32 -8 -17
-27 -45 -43 -63 l-28 -33 0 28 -1 28 -14 -32 c-8 -19 -23 -35 -38 -38 -14 -4
-35 -25 -52 -55 -18 -31 -42 -56 -62 -65 -20 -10 -33 -23 -33 -34 0 -11 -6
-21 -14 -24 -7 -3 -21 -36 -30 -74 -10 -37 -22 -83 -27 -100 -6 -18 -14 -55
-18 -83 l-8 -50 111 -2 111 -2 -135 -6 c-85 -4 -127 -9 -113 -14 12 -4 20 -13
18 -19 -2 -7 -6 -41 -9 -77 -3 -36 -10 -96 -16 -135 -21 -147 -44 -421 -60
-705 -10 -181 -17 -240 -30 -240 -23 0 -43 334 -37 625 3 194 2 231 -5 165 -6
-47 -11 -276 -12 -510 -1 -444 1 -481 46 -675 61 -263 245 -548 478 -739 103
-84 99 -81 154 -131 27 -25 44 -45 38 -45 -29 0 4 -153 54 -254 38 -77 86
-129 159 -169 l60 -33 3 -109 c10 -365 -45 -1108 -100 -1340 -7 -27 -12 -54
-13 -60 -1 -5 -5 -17 -9 -26 -9 -20 -204 -175 -216 -172 -21 6 -54 -62 -58
-119 -6 -75 16 -133 65 -179 21 -19 29 -24 19 -11 -27 31 -15 37 14 7 16 -17
35 -25 59 -26 28 -1 30 -3 11 -6 -14 -3 -29 -9 -35 -15 -7 -6 -7 -9 0 -7 6 2
20 0 32 -4 21 -8 21 -9 -20 -88 -39 -75 -42 -87 -42 -158 1 -76 25 -147 56
-167 8 -5 9 -3 4 7 -5 8 9 -2 31 -21 49 -44 101 -76 137 -85 l27 -7 0 -102 c1
-81 5 -112 23 -156 12 -30 25 -54 29 -53 3 0 28 -19 54 -44 70 -67 120 -86
240 -91 l101 -4 23 -42 c13 -22 52 -67 87 -98 104 -93 200 -117 326 -81 42 11
61 22 65 36 3 13 7 15 12 6 6 -9 17 -7 43 10 58 36 64 48 36 77 -13 15 6 4 42
-24 117 -87 215 -107 329 -67 78 27 95 40 131 97 29 45 73 171 63 180 -2 3 27
-6 64 -19 78 -26 142 -29 202 -8 23 8 46 13 50 10 19 -12 80 66 96 121 22 77
11 159 -41 286 -6 15 -3 17 21 9 49 -16 183 -21 232 -10 26 6 58 12 71 14 31
3 57 35 73 87 26 87 -28 185 -181 330 -53 50 -87 87 -76 83 70 -26 245 -59
245 -46 0 3 28 7 63 9 34 1 70 5 81 8 11 4 16 2 12 -4 -9 -15 31 -2 45 14 9
12 4 14 -32 16 -43 1 -42 1 11 7 53 6 55 7 64 42 28 115 -26 164 -397 364 -49
26 -86 49 -83 52 2 3 100 -5 217 -17 166 -17 214 -19 219 -9 6 8 24 10 63 6
47 -6 58 -4 82 15 85 67 55 203 -50 222 -19 4 -35 11 -35 15 0 5 -66 32 -147
61 -225 79 -347 132 -331 142 7 4 132 8 278 8 146 -1 285 -1 309 0 35 0 49 6
77 34 30 30 34 41 34 84 0 51 -22 91 -60 112 -10 5 -86 23 -168 40 -207 42
-462 119 -462 140 0 4 39 16 88 25 63 13 150 19 316 21 261 4 287 10 320 77
24 50 15 100 -27 142 -39 39 -115 55 -264 55 -106 0 -247 24 -363 61 -84 28
-90 34 -47 52 100 42 198 57 372 56 116 -1 170 2 173 10 2 6 19 11 38 11 84 0
134 47 134 126 0 68 -34 109 -108 130 -48 14 -79 16 -202 9 -216 -13 -276 -10
-364 14 -122 34 -123 34 -31 77 l80 38 180 7 c99 4 192 10 208 13 15 3 39 8
53 11 21 5 24 8 14 20 -10 12 -4 14 35 13 40 0 52 4 77 29 58 58 44 182 -20
184 -23 0 -24 2 -8 8 16 6 12 10 -25 26 -75 30 -265 21 -438 -21 -36 -9 -79
-14 -101 -10 -57 9 -170 46 -170 55 0 5 35 27 78 49 l77 40 160 5 c177 7 265
22 341 61 70 35 87 57 91 119 12 163 -159 202 -505 116 -113 -28 -128 -29
-180 -19 -31 7 -72 19 -91 26 l-34 14 34 26 c19 14 58 36 86 51 49 23 65 26
205 28 304 5 448 72 435 202 -9 82 -71 129 -187 140 -66 6 -239 -19 -351 -52
-76 -22 -83 -22 -142 -9 -79 19 -127 36 -127 46 0 4 44 29 98 55 l97 48 155
-3 c171 -4 261 8 330 41 117 57 119 192 5 251 -35 18 -58 21 -170 21 -87 0
-162 -6 -227 -19 -92 -18 -101 -18 -163 -3 -35 9 -84 25 -107 35 l-43 19 42
21 c58 30 186 64 247 65 28 1 101 -4 162 -10 116 -13 197 -8 172 9 -9 7 -2 8
20 4 38 -7 89 12 116 43 11 12 21 41 23 68 6 63 -24 109 -92 143 -48 24 -57
25 -250 26 -193 1 -203 2 -275 29 -98 36 -134 55 -124 64 17 16 110 33 224 41
102 8 125 7 205 -12 120 -29 255 -29 293 -1 69 50 76 138 16 199 -43 42 -105
61 -254 76 -126 13 -224 45 -346 113 -64 36 -67 39 -43 48 29 11 250 3 331
-13 31 -6 84 -22 118 -36 34 -14 80 -27 103 -30 147 -18 133 -20 177 24 35 34
40 46 40 84 0 94 -60 141 -239 187 -81 21 -133 41 -193 76 -91 53 -175 112
-198 140 -14 17 -12 18 60 12 144 -11 244 -46 395 -135 39 -23 79 -43 90 -45
11 -2 39 -9 62 -17 50 -15 84 -8 124 28 32 29 47 87 35 136 -15 59 -102 123
-247 182 -73 30 -90 42 -178 127 -78 76 -136 145 -128 154 11 11 101 -18 196
-63 79 -37 109 -59 186 -133 174 -168 282 -196 353 -91 31 46 26 112 -12 170
-25 39 -142 138 -218 186 -40 25 -124 142 -164 227 -43 94 -30 99 77 28 112
-73 164 -124 216 -213 53 -89 140 -191 184 -214 93 -48 194 19 191 128 -1 63
-35 124 -135 244 -49 59 -88 117 -103 155 -25 62 -67 220 -59 227 7 8 72 -48
115 -99 71 -84 158 -219 175 -270 9 -27 21 -49 26 -49 5 0 9 -10 9 -23 0 -13
7 -32 15 -42 8 -11 25 -36 38 -55 48 -74 155 -74 205 0 38 57 29 129 -35 265
-37 79 -58 139 -72 210 -24 125 -34 215 -23 215 22 0 137 -236 217 -445 49
-128 91 -175 156 -175 76 0 130 46 131 113 2 60 -13 322 -18 342 -4 12 -3 16
3 10 5 -5 19 -44 32 -85 69 -229 131 -310 238 -310 21 0 52 9 69 19 34 21 84
80 84 99 0 19 10 14 62 -33 45 -40 121 -75 165 -75 16 0 16 -10 -2 -85 -21
-86 -20 -95 13 -95 26 0 182 -36 189 -44 2 -2 -46 -1 -106 2 -79 3 -115 1
-125 -7 -8 -7 -27 -49 -42 -94 -24 -75 -47 -118 -58 -106 -2 2 4 57 13 122 16
114 15 131 -7 104 -10 -11 -62 -206 -62 -229 0 -5 13 -8 29 -8 15 0 131 -23
257 -51 384 -84 746 -151 917 -169 55 -5 123 -13 152 -16 l54 -7 4 54 3 54 2
-56 2 -57 83 -7 c45 -4 125 -15 177 -25 52 -11 185 -31 295 -45 237 -30 256
-34 491 -91 99 -24 189 -44 200 -44 17 0 22 13 37 95 10 53 15 100 11 106 -3
6 -20 20 -38 31 -22 14 -25 19 -10 15 20 -4 24 8 68 197 60 254 61 264 19 290
-31 20 -32 23 -26 67 l5 47 -56 21 c-72 27 -197 43 -212 27 -7 -6 -15 -25 -19
-43 -5 -27 -3 -32 17 -37 13 -3 -5 -3 -39 -1 -39 2 -66 -1 -72 -9 -9 -11 -111
-415 -111 -440 0 -7 39 -20 91 -30 49 -10 89 -19 87 -21 -2 -1 -52 0 -111 3
-86 4 -107 7 -103 18 4 10 -3 14 -19 14 -29 0 -29 -2 -10 75 19 78 19 120 0
135 -13 11 -15 10 -10 -6 4 -10 -1 -7 -10 9 -8 15 -23 27 -31 27 -12 0 -14 8
-9 45 7 42 6 45 -25 64 -42 25 -176 62 -258 70 -84 9 -90 18 -54 72 79 117 94
284 37 404 -16 33 -50 81 -76 107 -26 26 -55 68 -65 94 -24 62 -112 156 -176
188 -66 33 -78 33 -79 -1 -1 -22 -3 -23 -6 -7 -3 18 -13 22 -66 28 -99 10
-230 -21 -324 -77 -54 -32 -47 -14 9 23 76 49 171 80 251 80 37 0 67 4 67 9 0
14 -59 57 -110 80 -48 22 -85 27 -75 11 7 -12 -22 -18 -97 -22 l-58 -3 6 35
c3 19 34 168 69 330 89 412 84 368 38 373 l-38 4 41 1 40 2 18 88 c29 148 85
449 116 622 22 131 27 183 23 249 -6 86 -18 106 -48 81 -10 -8 -15 -31 -15
-66 0 -30 -4 -54 -10 -54 -6 0 -10 31 -10 74 l0 74 60 -2 c33 -1 60 -2 60 -1
0 0 7 38 15 85 8 47 15 88 15 91 0 3 -20 6 -45 7 -58 0 -99 30 -121 87 -16 43
-16 47 0 90 25 64 62 88 131 83 l55 -3 2 80 2 80 6 -90 c3 -49 8 -83 12 -75 4
8 23 107 43 220 33 185 138 709 151 753 4 12 -1 17 -18 18 l-23 1 24 7 c23 6
28 23 83 266 78 350 197 838 274 1130 35 132 64 254 64 270 0 39 -36 99 -55
91 -8 -3 -30 1 -49 9 -45 19 -80 19 -96 0z m-738 -3212 c10 -9 18 -27 18 -40
0 -21 -4 -23 -50 -23 -52 0 -60 -8 -34 -34 18 -18 50 -21 59 -6 4 6 11 7 17 4
15 -10 -20 -34 -49 -34 -34 0 -63 34 -63 75 0 62 60 96 102 58z m118 1 c0 -8
-9 -14 -20 -14 -18 0 -20 -7 -20 -60 0 -47 -3 -60 -15 -60 -12 0 -15 15 -15
74 l0 74 35 0 c23 0 35 -5 35 -14z m330 -2094 c31 -17 22 -20 -30 -10 -75 15
-90 13 -91 -12 -2 -22 -2 -22 -6 1 -5 23 -6 24 -101 19 -115 -6 -92 10 28 21
83 7 166 -1 200 -19z m-98 -236 c16 -15 -29 -100 -79 -152 -45 -46 -51 -50
-34 -22 39 63 81 149 81 165 0 15 21 21 32 9z m-301 -357 c-8 -8 -11 -7 -11 4
0 9 3 19 7 23 4 4 9 2 11 -4 3 -7 -1 -17 -7 -23z m-281 -86 c14 -8 43 -31 65
-51 22 -20 55 -45 73 -56 31 -17 33 -22 28 -54 -13 -73 -13 -74 19 -81 19 -4
1 -7 -52 -8 -45 0 -89 -4 -99 -8 -12 -4 -15 -2 -12 8 3 9 26 16 64 20 l59 6
-79 1 c-60 2 -84 -2 -97 -14 -16 -14 -19 -14 -36 3 -10 10 -29 25 -41 33 l-22
15 25 95 c14 52 27 100 30 107 5 14 39 6 75 -16z m1025 -114 c93 -24 159 -45
143 -46 -3 -1 -53 10 -110 23 -57 14 -142 28 -189 31 -85 7 -86 7 -107 -20
-20 -25 -22 -26 -22 -7 0 11 8 28 17 38 23 22 132 15 268 -19z m-359 -54 c-3
-10 -14 -62 -25 -117 -11 -54 -22 -101 -25 -104 -3 -3 -15 7 -27 22 -17 21
-24 25 -30 14 -7 -10 -9 -9 -9 4 0 11 -19 23 -61 37 -34 11 -66 18 -70 15 -12
-7 -11 23 2 69 10 36 11 37 59 37 30 0 54 6 63 15 9 9 17 11 19 5 2 -7 18 -5
43 4 54 20 67 20 61 -1z m-403 -90 c-7 -2 -19 -2 -25 0 -7 3 -2 5 12 5 14 0
19 -2 13 -5z m547 -94 c18 -6 8 -7 -32 -4 -50 4 -60 2 -79 -17 -18 -19 -21
-20 -15 -5 3 10 6 23 6 28 0 11 86 10 120 -2z m-5720 -59 c13 -9 13 -11 0 -19
-18 -12 -38 -15 -465 -56 -198 -19 -381 -37 -408 -40 -44 -4 -47 -3 -37 14 13
25 34 32 112 38 37 3 217 20 400 38 387 38 379 38 398 25z m6627 -96 c-3 -3
-12 -4 -19 -1 -8 3 -5 6 6 6 11 1 17 -2 13 -5z m-7609 -281 c-10 -2 -26 -2
-35 0 -10 3 -2 5 17 5 19 0 27 -2 18 -5z m946 -12 c-33 -10 -112 -23 -175 -30
-62 -6 -251 -25 -418 -41 -167 -17 -306 -28 -309 -25 -3 2 6 13 18 23 23 18
168 36 560 68 41 4 82 10 90 15 8 5 78 8 155 8 l140 -1 -61 -17z m-4 -361 c0
-17 -70 -28 -300 -50 -124 -12 -310 -30 -413 -41 -239 -24 -227 -24 -199 3 20
21 49 25 389 59 383 38 523 46 523 29z m1663 -60 c-34 -14 -191 -42 -211 -38
-26 6 20 28 77 38 68 11 162 11 134 0z m-1540 -371 c-11 -42 -122 -128 -213
-166 -129 -54 -288 -79 -561 -90 -178 -6 -219 2 -304 62 -59 42 -65 51 -65 91
0 57 21 60 97 15 37 -22 88 -45 113 -50 128 -29 555 4 715 55 54 18 188 84
193 97 8 18 30 6 25 -14z m1507 -63 c-41 -15 -170 -46 -170 -40 0 16 121 52
175 52 l30 1 -35 -13z m-1123 -468 c-2 -24 -4 -7 -4 37 0 44 2 63 4 43 2 -21
2 -57 0 -80z m1118 38 c-81 -31 -124 -41 -108 -26 12 13 126 49 153 49 8 0
-12 -11 -45 -23z m68 -411 c-71 -28 -121 -41 -111 -30 9 10 138 53 158 54 8 0
-13 -11 -47 -24z m94 -406 c-21 -12 -126 -49 -140 -49 -22 0 5 14 70 36 74 25
98 29 70 13z m-2482 -269 c2 -4 -7 -5 -20 -2 -14 2 -25 8 -25 12 0 10 38 1 45
-10z m758 -117 c-13 -2 -35 -2 -50 0 -16 2 -5 4 22 4 28 0 40 -2 28 -4z m2030
0 c-13 -2 -35 -2 -50 0 -16 2 -5 4 22 4 28 0 40 -2 28 -4z m-318 -62 c-27 -10
-63 -21 -80 -25 -47 -10 -2 14 54 30 68 18 84 15 26 -5z m-2198 -335 c4 -3 4
-9 0 -12 -8 -8 -77 15 -77 26 0 8 67 -4 77 -14z m2208 -101 c-59 -18 -111 -28
-103 -20 10 10 97 34 123 33 11 0 2 -6 -20 -13z m-30 -441 c-50 -14 -103 -19
-93 -9 7 7 87 23 118 23 14 0 3 -6 -25 -14z m-40 -433 c-27 -11 -141 -23 -132
-15 9 9 74 22 117 22 27 1 30 -1 15 -7z m-127 -438 c-21 -2 -55 -2 -75 0 -21
2 -4 4 37 4 41 0 58 -2 38 -4z m-338 -357 c0 -8 -90 -48 -100 -44 -22 7 11 32
52 38 23 4 44 8 46 9 1 0 2 -1 2 -3z m179 -52 c11 -10 -9 -13 -62 -7 -31 3
-57 10 -57 16 0 9 109 1 119 -9z m-1411 -41 c-16 -2 -40 -2 -55 0 -16 2 -3 4
27 4 30 0 43 -2 28 -4z m-293 -82 c5 -10 -153 -76 -162 -68 -5 5 134 77 148
77 4 0 10 -4 14 -9z m-233 -120 c-23 -20 -29 -30 -20 -34 8 -3 6 -6 -6 -6 -11
-1 -30 -11 -43 -23 l-23 -21 12 24 c6 13 32 38 57 56 57 39 66 41 23 4z m631
-38 c-18 -2 -48 -2 -65 0 -18 2 -4 4 32 4 36 0 50 -2 33 -4z m24 -39 c-3 -3
-12 -4 -19 -1 -8 3 -5 6 6 6 11 1 17 -2 13 -5z m996 -26 c10 -5 16 -12 13 -15
-9 -9 -71 6 -92 23 -18 14 -16 15 21 9 22 -4 48 -11 58 -17z m-1293 -55 c0 -5
-29 -34 -64 -66 -36 -31 -77 -75 -93 -97 -26 -36 -31 -39 -63 -33 -19 3 -47
12 -62 19 -37 19 -27 46 43 116 l57 57 83 4 c46 1 87 4 92 5 4 1 7 -1 7 -5z
m47 -30 c-18 -20 -77 -57 -77 -49 0 6 80 66 88 66 3 0 -2 -8 -11 -17z m915
-30 c10 -9 18 -22 18 -30 0 -16 0 -16 -42 2 -31 12 -38 12 -54 0 -11 -8 -22
-15 -26 -15 -12 0 -9 35 4 48 17 17 78 15 100 -5z m-492 -13 c0 -5 -10 -12
-22 -14 -13 -3 -35 -7 -50 -11 -38 -7 -35 3 5 20 38 17 67 19 67 5z m477 -84
c8 -7 9 -16 3 -26 -8 -12 -13 -11 -34 10 -15 13 -26 28 -26 32 0 11 41 0 57
-16z m-646 -44 c-13 -25 -40 -46 -48 -39 -9 10 26 57 43 57 11 0 12 -4 5 -18z
m304 -61 c-10 -32 -35 -26 -35 7 0 36 10 46 28 28 9 -8 11 -22 7 -35z m52 -38
c-2 -16 -4 -3 -4 27 0 30 2 43 4 28 2 -16 2 -40 0 -55z m-533 -137 c-3 -13
-11 -61 -17 -107 l-12 -84 -39 -3 c-56 -5 -81 4 -94 33 -15 32 -14 70 1 114
11 32 17 36 82 52 39 9 73 17 78 18 4 0 5 -10 1 -23z m880 -105 l46 -55 0 -80
c0 -82 -13 -150 -30 -161 -13 -8 -60 18 -92 52 -27 28 -27 29 -13 77 8 27 20
89 26 138 7 49 13 87 14 86 2 -2 23 -27 49 -57z m-435 -169 l31 -74 -21 -29
c-45 -64 -113 -76 -153 -28 -36 43 -44 79 -20 92 10 6 44 34 74 63 30 29 55
52 56 51 1 -1 16 -35 33 -75z"/>
<path d="M9617 12053 c-18 -17 -5 -33 28 -33 37 0 43 8 23 28 -13 13 -41 16
-51 5z"/>
<path d="M9890 12452 c-17 -14 -23 -29 -23 -62 0 -73 60 -104 108 -55 31 30
32 73 4 109 -24 31 -57 34 -89 8z"/>
<path d="M9276 11334 c-9 -37 -15 -68 -13 -71 3 -2 12 26 21 63 9 37 15 68 13
71 -3 2 -12 -26 -21 -63z"/>
<path d="M9251 11234 c0 -11 3 -14 6 -6 3 7 2 16 -1 19 -3 4 -6 -2 -5 -13z"/>
<path d="M9220 11123 c-13 -49 -25 -95 -27 -103 -4 -13 -3 -13 5 0 12 19 55
181 49 186 -2 2 -14 -35 -27 -83z"/>
<path d="M5280 9893 c0 -8 -13 -12 -33 -11 -44 2 -94 -29 -107 -66 -5 -16 -14
-102 -20 -190 -5 -89 -12 -193 -16 -233 l-6 -72 28 -13 c16 -6 38 -20 49 -29
11 -9 29 -19 40 -21 27 -4 34 -48 8 -49 -10 -1 5 -7 32 -14 28 -7 53 -9 56 -6
10 9 40 582 33 618 -6 32 -63 108 -64 86z"/>
<path d="M5135 9225 c17 -8 39 -14 50 -15 36 0 -2 23 -42 26 l-38 3 30 -14z"/>
<path d="M7910 8929 c-7 -11 -10 -23 -7 -25 2 -2 9 7 15 21 14 30 7 33 -8 4z"/>
<path d="M7870 8818 c-61 -200 -88 -329 -65 -306 8 7 95 371 91 375 -2 2 -14
-29 -26 -69z"/>
<path d="M8010 8877 c-14 -7 -32 -28 -41 -47 -26 -56 -81 -222 -94 -287 l-6
-32 68 -4 68 -3 -76 -2 c-72 -2 -77 -3 -77 -24 0 -13 -7 -50 -16 -83 -8 -33
-67 -269 -130 -525 -64 -256 -122 -487 -130 -515 -8 -27 -20 -78 -27 -112 -14
-75 -28 -76 -19 -1 6 47 71 341 135 613 13 56 49 215 80 355 31 140 58 263 61
273 3 10 0 17 -8 17 -10 0 -27 -52 -56 -172 -188 -786 -232 -973 -232 -998 0
-16 -4 -30 -8 -32 -4 -1 -68 -255 -141 -563 -73 -308 -161 -672 -194 -810
l-62 -250 -1 -270 c0 -268 -1 -272 -38 -470 -20 -110 -48 -249 -62 -310 -14
-60 -36 -164 -50 -230 -13 -66 -42 -196 -64 -290 -22 -93 -51 -222 -66 -285
-14 -63 -61 -273 -104 -467 -114 -508 -133 -623 -112 -675 13 -31 113 -100
180 -124 36 -12 107 -30 157 -39 198 -34 518 -85 536 -85 15 0 19 10 22 68 l3
67 2 -71 2 -71 408 -67 c1165 -192 1374 -227 1447 -242 92 -19 209 -15 321 11
66 15 74 15 120 -1 27 -9 79 -32 116 -50 37 -19 70 -34 73 -34 3 0 5 56 5 125
l0 126 -57 -5 c-32 -3 -58 -6 -58 -6 0 -2 -19 -5 -84 -16 -32 -5 -45 -3 -52 7
-16 25 -9 91 21 208 27 107 48 195 146 601 19 80 46 188 59 241 14 53 25 114
25 137 l0 41 -67 4 -68 3 67 2 68 2 3 267 2 268 3 -267 c1 -171 6 -268 12
-268 6 0 10 7 10 16 0 17 108 462 139 574 10 36 29 101 41 145 51 182 119 365
147 397 21 23 30 18 140 -74 24 -21 47 -38 51 -38 4 0 16 -14 26 -30 9 -17 28
-41 41 -54 15 -15 26 -41 30 -72 4 -27 12 -54 17 -61 9 -12 4 -40 -72 -343
-12 -47 -23 -92 -24 -100 -2 -8 -6 -22 -9 -30 -3 -8 -13 -46 -22 -85 -21 -88
-34 -138 -51 -193 -18 -55 -18 -54 13 -50 27 3 28 7 89 243 119 468 182 655
273 815 66 116 90 165 112 229 27 78 26 85 -12 66 -24 -13 -39 -14 -72 -6 -74
17 -311 112 -331 131 -25 25 -23 70 10 210 14 58 31 134 40 170 8 36 39 169
68 295 30 127 57 246 61 265 4 19 14 43 23 53 14 16 10 17 -74 19 l-89 2 81 3
81 4 12 57 c13 58 86 370 121 517 26 106 118 498 130 555 6 25 19 81 30 125
10 44 37 163 60 265 22 102 49 223 60 270 29 133 68 337 81 430 13 97 5 146
-35 195 l-24 30 -154 3 c-140 2 -199 8 -328 32 -25 5 -192 9 -372 9 l-327 1
-4 -37 -4 -38 -1 37 -2 38 -272 3 -273 2 273 3 272 2 0 45 c0 25 -2 45 -5 45
-2 0 -62 9 -132 20 -71 12 -209 34 -308 50 -99 15 -297 47 -440 70 -143 23
-339 54 -435 70 -483 80 -617 94 -670 67z m93 -414 c-7 -2 -19 -2 -25 0 -7 3
-2 5 12 5 14 0 19 -2 13 -5z m70 -10 c-7 -2 -21 -2 -30 0 -10 3 -4 5 12 5 17
0 24 -2 18 -5z m60 -10 c-7 -2 -19 -2 -25 0 -7 3 -2 5 12 5 14 0 19 -2 13 -5z
m60 -10 c-7 -2 -19 -2 -25 0 -7 3 -2 5 12 5 14 0 19 -2 13 -5z m70 -10 c-7 -2
-21 -2 -30 0 -10 3 -4 5 12 5 17 0 24 -2 18 -5z m60 -10 c-7 -2 -19 -2 -25 0
-7 3 -2 5 12 5 14 0 19 -2 13 -5z m60 -10 c-7 -2 -19 -2 -25 0 -7 3 -2 5 12 5
14 0 19 -2 13 -5z m60 -10 c-7 -2 -19 -2 -25 0 -7 3 -2 5 12 5 14 0 19 -2 13
-5z m70 -10 c-7 -2 -21 -2 -30 0 -10 3 -4 5 12 5 17 0 24 -2 18 -5z m60 -10
c-7 -2 -21 -2 -30 0 -10 3 -4 5 12 5 17 0 24 -2 18 -5z m60 -10 c-7 -2 -21 -2
-30 0 -10 3 -4 5 12 5 17 0 24 -2 18 -5z m60 -10 c-7 -2 -19 -2 -25 0 -7 3 -2
5 12 5 14 0 19 -2 13 -5z m60 -10 c-7 -2 -19 -2 -25 0 -7 3 -2 5 12 5 14 0 19
-2 13 -5z m60 -10 c-7 -2 -19 -2 -25 0 -7 3 -2 5 12 5 14 0 19 -2 13 -5z m60
-10 c-7 -2 -19 -2 -25 0 -7 3 -2 5 12 5 14 0 19 -2 13 -5z m60 -10 c-7 -2 -19
-2 -25 0 -7 3 -2 5 12 5 14 0 19 -2 13 -5z m70 -10 c-7 -2 -21 -2 -30 0 -10 3
-4 5 12 5 17 0 24 -2 18 -5z m60 -10 c-7 -2 -21 -2 -30 0 -10 3 -4 5 12 5 17
0 24 -2 18 -5z m60 -10 c-7 -2 -21 -2 -30 0 -10 3 -4 5 12 5 17 0 24 -2 18 -5z
m60 -10 c-7 -2 -19 -2 -25 0 -7 3 -2 5 12 5 14 0 19 -2 13 -5z m60 -10 c-7 -2
-19 -2 -25 0 -7 3 -2 5 12 5 14 0 19 -2 13 -5z m60 -10 c-7 -2 -19 -2 -25 0
-7 3 -2 5 12 5 14 0 19 -2 13 -5z m60 -10 c-7 -2 -19 -2 -25 0 -7 3 -2 5 12 5
14 0 19 -2 13 -5z m60 -10 c-7 -2 -19 -2 -25 0 -7 3 -2 5 12 5 14 0 19 -2 13
-5z m60 -10 c-7 -2 -19 -2 -25 0 -7 3 -2 5 12 5 14 0 19 -2 13 -5z m64 -9 c-3
-3 -12 -4 -19 -1 -8 3 -5 6 6 6 11 1 17 -2 13 -5z m66 -11 c-7 -2 -19 -2 -25
0 -7 3 -2 5 12 5 14 0 19 -2 13 -5z m60 -10 c-7 -2 -19 -2 -25 0 -7 3 -2 5 12
5 14 0 19 -2 13 -5z m60 -10 c-7 -2 -19 -2 -25 0 -7 3 -2 5 12 5 14 0 19 -2
13 -5z m54 -9 c-3 -3 -12 -4 -19 -1 -8 3 -5 6 6 6 11 1 17 -2 13 -5z m60 -10
c-3 -3 -12 -4 -19 -1 -8 3 -5 6 6 6 11 1 17 -2 13 -5z m190 -30 c-3 -3 -12 -4
-19 -1 -8 3 -5 6 6 6 11 1 17 -2 13 -5z m120 -20 c-3 -3 -12 -4 -19 -1 -8 3
-5 6 6 6 11 1 17 -2 13 -5z m120 -20 c-3 -3 -12 -4 -19 -1 -8 3 -5 6 6 6 11 1
17 -2 13 -5z m-2869 -1151 c-2 -266 -3 -285 -6 -118 l-4 200 -25 -95 c-14 -52
-31 -120 -38 -150 -7 -30 -23 -93 -35 -140 -11 -47 -30 -127 -42 -178 -11 -51
-23 -91 -25 -88 -3 2 7 58 22 123 15 65 37 166 50 224 13 58 32 143 43 190 47
192 52 221 52 284 0 36 2 65 5 65 3 0 4 -143 3 -317z m360 -534 c175 -31 165
-41 -14 -14 -115 17 -194 19 -194 5 0 -5 -5 -10 -12 -10 -6 0 -3 9 7 20 23 26
64 26 213 -1z m-534 -64 c-4 -8 -8 -15 -10 -15 -2 0 -4 7 -4 15 0 8 4 15 10
15 5 0 7 -7 4 -15z m-19 -65 c-4 -17 -9 -30 -11 -27 -2 2 -1 18 2 36 4 17 9
30 11 27 3 -2 2 -19 -2 -36z m1344 -126 c135 -23 238 -42 229 -43 -27 -2 -445
68 -473 79 -14 5 -25 12 -25 15 0 4 5 3 12 -1 6 -4 122 -26 257 -50z m-1372
14 c-3 -7 -5 -2 -5 12 0 14 2 19 5 13 2 -7 2 -19 0 -25z m1666 -65 c-7 -2 -21
-2 -30 0 -10 3 -4 5 12 5 17 0 24 -2 18 -5z m242 -35 c110 -18 191 -34 180
-35 -11 -2 -108 13 -215 31 -107 19 -188 34 -180 35 8 1 105 -13 215 -31z
m248 -45 c-7 -2 -21 -2 -30 0 -10 3 -4 5 12 5 17 0 24 -2 18 -5z m-2103 -17
c8 -2 -16 -4 -55 -5 -38 0 -65 3 -58 7 11 7 77 6 113 -2z m2285 -9 c7 -6 -1
-8 -24 -3 -18 3 -58 6 -87 6 -30 0 -54 4 -54 10 0 13 151 1 165 -13z m-2042 6
c-7 -2 -21 -2 -30 0 -10 3 -4 5 12 5 17 0 24 -2 18 -5z m565 0 c-10 -2 -26 -2
-35 0 -10 3 -2 5 17 5 19 0 27 -2 18 -5z m170 0 c-10 -2 -28 -2 -40 0 -13 2
-5 4 17 4 22 1 32 -1 23 -4z m1365 -20 c-7 -2 -19 -2 -25 0 -7 3 -2 5 12 5 14
0 19 -2 13 -5z m-1317 -13 c45 -15 1682 -281 1744 -283 30 -1 64 2 75 6 l20 9
-20 -17 c-16 -13 -33 -16 -85 -11 -36 3 -75 8 -88 10 -13 3 -387 64 -830 137
-444 72 -818 137 -832 145 -30 16 -24 18 16 4z m1382 3 c-10 -2 -26 -2 -35 0
-10 3 -2 5 17 5 19 0 27 -2 18 -5z m132 -17 c36 -8 56 -14 45 -14 -11 -1 -51
5 -90 12 -38 8 -59 14 -45 14 14 1 54 -5 90 -12z m130 -24 c0 -5 -13 -7 -30
-4 -16 2 -30 6 -30 8 0 2 14 4 30 4 17 0 30 -4 30 -8z m141 -18 c35 -4 64 -2
77 5 12 6 22 8 22 3 0 -24 -77 -27 -170 -7 -36 8 -47 12 -25 10 22 -3 65 -8
96 -11z m-2644 -136 c-2 -18 -4 -6 -4 27 0 33 2 48 4 33 2 -15 2 -42 0 -60z
m809 -38 c23 -8 1511 -255 1664 -276 19 -3 52 -7 72 -10 23 -4 48 -1 67 9 24
12 29 12 24 1 -7 -19 -44 -27 -100 -21 -27 2 -313 48 -638 101 -324 53 -699
115 -831 136 -226 37 -294 52 -294 65 0 7 3 7 36 -5z m-811 -96 c82 -43 376
-80 445 -55 37 12 50 7 31 -12 -26 -26 -386 8 -452 44 -16 8 -19 6 -20 -13
l-2 -23 -4 22 c-2 13 -14 30 -26 38 -28 20 -10 19 28 -1z m751 -134 c47 -16
1729 -288 1765 -286 19 2 43 6 54 10 17 7 17 5 -4 -13 -13 -12 -32 -21 -42
-21 -11 0 -19 -7 -20 -17 -1 -17 -2 -17 -6 -1 -2 10 -18 20 -36 23 -18 3 -405
66 -862 140 -456 74 -842 140 -857 146 -16 6 -28 15 -28 20 0 11 1 11 36 -1z
m-849 -301 c76 -11 167 -26 203 -34 l65 -14 -60 6 c-33 4 -71 8 -85 9 -14 1
-32 4 -40 7 -8 3 -62 13 -119 22 -58 8 -107 18 -110 20 -6 7 -6 7 146 -16z
m316 -56 c-7 -2 -21 -2 -30 0 -10 3 -4 5 12 5 17 0 24 -2 18 -5z m50 -10 c-7
-2 -19 -2 -25 0 -7 3 -2 5 12 5 14 0 19 -2 13 -5z m245 -40 c-10 -2 -26 -2
-35 0 -10 3 -2 5 17 5 19 0 27 -2 18 -5z m65 -10 c-7 -2 -21 -2 -30 0 -10 3
-4 5 12 5 17 0 24 -2 18 -5z m60 -10 c-7 -2 -21 -2 -30 0 -10 3 -4 5 12 5 17
0 24 -2 18 -5z m60 -10 c-7 -2 -19 -2 -25 0 -7 3 -2 5 12 5 14 0 19 -2 13 -5z
m60 -10 c-7 -2 -19 -2 -25 0 -7 3 -2 5 12 5 14 0 19 -2 13 -5z m64 -9 c-3 -3
-12 -4 -19 -1 -8 3 -5 6 6 6 11 1 17 -2 13 -5z m60 -10 c-3 -3 -12 -4 -19 -1
-8 3 -5 6 6 6 11 1 17 -2 13 -5z m296 -51 c-7 -2 -21 -2 -30 0 -10 3 -4 5 12
5 17 0 24 -2 18 -5z m64 -9 c-3 -3 -12 -4 -19 -1 -8 3 -5 6 6 6 11 1 17 -2 13
-5z m66 -11 c-7 -2 -19 -2 -25 0 -7 3 -2 5 12 5 14 0 19 -2 13 -5z m60 -10
c-7 -2 -19 -2 -25 0 -7 3 -2 5 12 5 14 0 19 -2 13 -5z m64 -9 c-3 -3 -12 -4
-19 -1 -8 3 -5 6 6 6 11 1 17 -2 13 -5z m60 -10 c-3 -3 -12 -4 -19 -1 -8 3 -5
6 6 6 11 1 17 -2 13 -5z m356 -61 c-7 -2 -21 -2 -30 0 -10 3 -4 5 12 5 17 0
24 -2 18 -5z m74 -9 c-3 -3 -12 -4 -19 -1 -8 3 -5 6 6 6 11 1 17 -2 13 -5z
m60 -10 c-3 -3 -12 -4 -19 -1 -8 3 -5 6 6 6 11 1 17 -2 13 -5z m60 -10 c-3 -3
-12 -4 -19 -1 -8 3 -5 6 6 6 11 1 17 -2 13 -5z m-2374 -151 c-7 -2 -21 -2 -30
0 -10 3 -4 5 12 5 17 0 24 -2 18 -5z m44 -9 c-3 -3 -12 -4 -19 -1 -8 3 -5 6 6
6 11 1 17 -2 13 -5z m-164 -511 c-7 -2 -21 -2 -30 0 -10 3 -4 5 12 5 17 0 24
-2 18 -5z m1404 -229 c-3 -3 -12 -4 -19 -1 -8 3 -5 6 6 6 11 1 17 -2 13 -5z
m-1519 -291 c-10 -2 -26 -2 -35 0 -10 3 -2 5 17 5 19 0 27 -2 18 -5z m729
-119 c-3 -3 -12 -4 -19 -1 -8 3 -5 6 6 6 11 1 17 -2 13 -5z m-844 -41 c-7 -2
-21 -2 -30 0 -10 3 -4 5 12 5 17 0 24 -2 18 -5z m1100 0 c-13 -2 -35 -2 -50 0
-16 2 -5 4 22 4 28 0 40 -2 28 -4z"/>
<path d="M10010 8556 l0 -46 263 1 c144 1 251 4 237 6 -14 2 -81 13 -150 24
-69 11 -168 27 -220 35 -52 8 -103 17 -112 20 -15 5 -18 -2 -18 -40z"/>
<path d="M11331 8584 c0 -11 3 -14 6 -6 3 7 2 16 -1 19 -3 4 -6 -2 -5 -13z"/>
<path d="M11318 8537 c-3 -19 -2 -25 4 -19 6 6 8 18 6 28 -3 14 -5 12 -10 -9z"/>
<path d="M11300 8490 c0 -5 5 -10 10 -10 6 0 10 5 10 10 0 6 -4 10 -10 10 -5
0 -10 -4 -10 -10z"/>
<path d="M3121 8274 c0 -11 3 -14 6 -6 3 7 2 16 -1 19 -3 4 -6 -2 -5 -13z"/>
<path d="M11240 5990 c0 -5 5 -10 10 -10 6 0 10 5 10 10 0 6 -4 10 -10 10 -5
0 -10 -4 -10 -10z"/>
<path d="M10010 3448 c0 -62 5 -60 14 5 5 31 4 47 -3 47 -7 0 -11 -22 -11 -52z"/>
<path d="M10430 3490 c0 -5 9 -10 20 -10 19 0 20 -2 6 -35 -9 -20 -15 -36 -15
-38 2 -8 -14 -86 -22 -107 -5 -14 -11 -36 -14 -50 -2 -14 -9 -34 -14 -45 -4
-11 -18 -58 -30 -105 -12 -47 -26 -98 -31 -115 -4 -16 -14 -55 -21 -85 -7 -30
-19 -62 -27 -72 -7 -9 -15 -27 -17 -40 -4 -26 -7 -36 -23 -93 -6 -22 -12 -44
-13 -50 -1 -5 -9 -26 -20 -46 -10 -20 -19 -53 -21 -73 -1 -20 -5 -36 -8 -36
-3 0 -18 -23 -35 -52 -16 -28 -40 -61 -52 -73 -13 -12 -23 -28 -23 -34 0 -7
-5 -9 -12 -5 -8 5 -9 2 -5 -10 4 -9 3 -15 -2 -11 -5 3 -12 -1 -14 -7 -3 -7 -6
28 -7 77 -1 60 -4 83 -10 70 -5 -11 -9 -110 -9 -220 l-1 -200 57 -22 c31 -12
60 -20 64 -17 15 9 47 128 145 524 52 212 103 419 114 460 20 77 130 522 130
527 0 2 -20 3 -45 3 -25 0 -45 -4 -45 -10z"/>
<path d="M0 505 l0 -505 7500 0 7500 0 0 505 0 505 -7500 0 -7500 0 0 -505z
m683 163 c19 -29 48 -79 66 -110 l32 -58 -48 -82 c-27 -46 -56 -84 -64 -86 -9
-1 -24 13 -36 35 -21 38 -21 38 -2 73 23 43 24 83 3 120 -47 79 -168 79 -209
0 -41 -79 8 -167 98 -177 40 -5 50 -11 68 -40 34 -55 23 -63 -83 -63 -51 0
-98 4 -103 8 -14 9 -125 201 -125 215 0 6 27 57 61 114 l61 103 124 0 124 0
33 -52z m2094 -280 c-1 -62 -3 -12 -3 112 0 124 2 174 3 113 2 -62 2 -164 0
-225z m-1837 247 c0 -20 -5 -25 -25 -25 -20 0 -25 5 -25 25 0 20 5 25 25 25
20 0 25 -5 25 -25z m1550 -30 c0 -18 5 -25 20 -25 13 0 20 -7 20 -19 0 -10 -9
-21 -20 -24 -16 -4 -20 -14 -20 -52 0 -38 4 -48 20 -52 11 -3 20 -14 20 -24 0
-14 -7 -19 -28 -19 -41 0 -52 17 -52 83 0 50 -3 60 -20 64 -11 3 -20 11 -20
19 0 7 9 18 20 24 11 6 20 20 20 30 0 13 7 20 20 20 15 0 20 -7 20 -25z
m10840 -78 l0 -103 -45 -2 c-36 -1 -47 3 -60 20 -20 29 -19 78 1 107 14 19 23
22 50 18 33 -6 34 -5 34 29 0 19 5 34 10 34 6 0 10 -41 10 -103z m-9410 -9 l0
-103 -38 -3 c-56 -3 -77 17 -77 73 0 55 23 79 68 71 25 -5 27 -3 27 29 0 19 5
35 10 35 6 0 10 -41 10 -102z m9250 2 c0 -60 -4 -100 -10 -100 -6 0 -10 40
-10 100 0 60 4 100 10 100 6 0 10 -40 10 -100z m398 -2 l-2 -103 -3 89 -4 88
-29 -6 c-17 -3 -30 -2 -30 2 0 7 43 28 63 31 4 1 6 -45 5 -101z m184 85 c25
-22 26 -138 1 -165 -19 -22 -52 -23 -79 -4 -16 12 -19 27 -19 86 0 59 3 74 19
86 26 19 55 18 78 -3z m153 7 c-3 -5 -13 -10 -22 -10 -20 0 -53 -28 -53 -45 0
-7 11 -10 30 -7 40 6 70 -21 70 -61 0 -60 -59 -88 -100 -47 -15 15 -20 33 -20
71 0 43 5 55 29 80 27 27 80 42 66 19z m159 -12 c10 -14 16 -44 16 -76 0 -43
-5 -58 -25 -77 -24 -25 -65 -34 -65 -15 0 6 9 10 19 10 22 0 51 25 51 44 0 8
-10 11 -30 8 -59 -8 -91 54 -54 106 20 30 68 30 88 0z m151 12 c-3 -5 -13 -10
-22 -10 -20 0 -53 -28 -53 -45 0 -7 11 -10 30 -7 40 6 70 -21 70 -61 0 -60
-59 -88 -100 -47 -15 15 -20 33 -20 71 0 43 5 55 29 80 27 27 80 42 66 19z
m160 -10 c24 -27 14 -61 -35 -114 -22 -24 -40 -46 -40 -49 0 -3 24 -8 53 -10
49 -3 48 -3 -15 -5 -38 -1 -68 0 -68 2 0 3 23 31 50 62 54 61 63 96 30 114
-24 13 -60 -3 -60 -25 0 -8 -4 -15 -10 -15 -15 0 -12 21 7 42 21 24 65 23 88
-2z m146 10 c32 -17 24 -62 -21 -119 -22 -28 -40 -53 -40 -55 0 -3 21 -7 48
-9 42 -3 41 -4 -15 -5 -35 -1 -63 1 -63 4 0 3 20 29 45 58 52 61 60 91 28 113
-20 14 -24 13 -48 -11 -30 -31 -37 -32 -28 -8 13 38 55 52 94 32z m163 -6 c19
-19 21 -49 3 -65 -11 -11 -10 -16 5 -31 10 -10 18 -25 18 -33 0 -24 -38 -55
-67 -55 -51 0 -84 60 -48 90 12 10 12 15 -2 36 -14 22 -14 26 1 49 19 29 66
34 90 9z m-11566 -10 c26 -18 29 -60 5 -86 -11 -12 -30 -18 -60 -18 l-43 0 0
-40 c0 -22 -4 -40 -10 -40 -6 0 -10 40 -10 100 l0 100 48 0 c27 0 57 -7 70
-16z m862 6 c0 -5 -4 -10 -10 -10 -5 0 -10 5 -10 10 0 6 5 10 10 10 6 0 10 -4
10 -10z m-3397 -52 c55 -64 -31 -151 -101 -102 -16 11 -22 25 -22 53 0 72 76
103 123 49z m355 -66 l3 -92 -26 0 c-25 0 -25 0 -25 88 0 92 4 105 30 100 12
-3 16 -22 18 -96z m198 73 c26 -26 25 -45 -2 -45 -9 0 -22 7 -31 16 -22 21
-55 14 -72 -18 -13 -23 -13 -30 -1 -52 15 -29 59 -36 79 -12 11 14 51 11 51
-3 0 -12 -44 -48 -66 -55 -52 -16 -114 37 -114 97 0 83 99 129 156 72z m205
-4 c76 -77 -8 -202 -105 -156 -92 44 -62 185 39 185 27 0 44 -8 66 -29z m115
18 c4 -8 9 -8 17 0 13 13 56 14 74 3 20 -13 33 -61 33 -123 0 -56 -1 -59 -25
-59 -24 0 -25 2 -25 69 0 61 -2 70 -20 76 -36 11 -50 -12 -50 -81 0 -62 -1
-64 -25 -64 -25 0 -25 1 -25 88 0 49 3 92 7 95 10 11 31 8 39 -4z m285 -10
c20 -20 20 -22 4 -31 -11 -7 -21 -6 -28 1 -6 6 -21 11 -34 11 -33 0 -29 -28 5
-36 44 -10 72 -33 72 -58 0 -57 -94 -83 -132 -36 -17 21 -18 24 -3 33 11 6 22
4 35 -8 21 -19 55 -17 55 4 0 7 -18 19 -39 26 -21 8 -43 20 -47 27 -40 62 59
120 112 67z m197 1 c12 -12 22 -25 22 -31 0 -18 -31 -22 -49 -5 -22 20 -40 20
-63 -1 -35 -31 -15 -93 29 -93 15 0 34 7 42 14 11 10 21 12 31 6 20 -12 3 -40
-34 -58 -33 -17 -88 -1 -111 31 -18 26 -19 96 -2 118 33 42 100 52 135 19z
m199 5 c26 -19 47 -77 38 -107 -18 -56 -69 -85 -121 -68 -43 15 -64 45 -64 93
0 75 87 124 147 82z m123 -55 c0 -57 3 -71 19 -79 33 -18 50 7 53 79 3 59 5
65 26 68 21 3 22 1 22 -92 0 -89 -1 -96 -20 -96 -11 0 -20 5 -20 10 0 6 -11 3
-25 -6 -21 -14 -30 -14 -55 -4 -34 14 -50 56 -50 131 0 50 5 59 32 59 16 0 18
-9 18 -70z m11130 50 c0 -5 -4 -10 -10 -10 -5 0 -10 5 -10 10 0 6 5 10 10 10
6 0 10 -4 10 -10z m-10126 -16 c9 -8 16 -24 16 -35 0 -16 -7 -19 -50 -19 -38
0 -50 -4 -50 -15 0 -20 39 -58 53 -52 52 21 53 21 38 4 -21 -26 -66 -21 -90 9
-12 15 -21 37 -21 49 0 56 69 95 104 59z m81 6 c8 7 22 10 32 8 14 -3 12 -7
-12 -18 -27 -14 -31 -21 -36 -75 -6 -59 -6 -59 -7 20 0 44 2 74 5 67 4 -10 8
-10 18 -2z m106 3 c23 9 34 9 50 -2 15 -9 24 -10 32 -2 18 18 55 12 71 -11 18
-25 22 -128 6 -128 -6 0 -10 27 -10 60 0 62 -15 84 -50 72 -24 -8 -30 -24 -30
-79 0 -74 -18 -66 -22 10 -3 57 -5 62 -27 65 -34 5 -45 -11 -52 -76 -6 -55 -6
-54 -7 23 0 44 2 75 4 69 4 -9 13 -9 35 -1z m303 -15 c18 -25 22 -128 6 -128
-5 0 -10 5 -10 12 0 9 -3 9 -12 0 -27 -27 -88 -8 -88 27 0 26 32 51 67 51 22
0 33 5 33 15 0 25 -34 35 -64 19 -38 -19 -42 -18 -21 6 24 27 70 26 89 -2z
m223 -90 c-2 -24 -4 -7 -4 37 0 44 2 63 4 43 2 -21 2 -57 0 -80z m9413 -18 c0
-5 -4 -10 -10 -10 -5 0 -10 5 -10 10 0 6 5 10 10 10 6 0 10 -4 10 -10z"/>
<path d="M13236 535 c-9 -23 -7 -68 3 -83 5 -8 21 -12 37 -10 28 3 29 5 29 53
0 49 -1 50 -31 53 -22 2 -33 -2 -38 -13z"/>
<path d="M3832 528 c-37 -37 6 -120 50 -97 15 8 18 19 16 57 -3 42 -6 47 -28
50 -14 2 -31 -3 -38 -10z"/>
<path d="M13700 602 c-24 -8 -30 -24 -30 -84 0 -47 4 -59 22 -72 29 -21 55 -5
64 39 13 72 -15 131 -56 117z"/>
<path d="M13841 521 c-38 -38 5 -104 52 -79 25 13 23 74 -2 88 -26 13 -28 13
-50 -9z"/>
<path d="M13987 594 c-11 -12 -8 -69 5 -82 32 -32 82 8 69 56 -6 21 -14 28
-37 30 -16 2 -33 0 -37 -4z"/>
<path d="M14151 521 c-38 -38 5 -104 52 -79 25 13 23 74 -2 88 -26 13 -28 13
-50 -9z"/>
<path d="M14628 603 c-24 -6 -33 -42 -15 -60 10 -10 24 -13 41 -9 50 12 24 80
-26 69z"/>
<path d="M14618 509 c-41 -23 -6 -89 39 -72 35 13 43 42 17 67 -18 18 -32 20
-56 5z"/>
<path d="M3020 546 c0 -45 0 -46 33 -46 47 0 69 19 65 55 -3 28 -6 30 -50 33
l-48 3 0 -45z"/>
<path d="M1234 516 c-14 -22 -14 -31 -4 -55 19 -46 74 -49 91 -4 23 62 -51
113 -87 59z"/>
<path d="M2044 514 c-34 -50 17 -111 65 -78 40 28 19 104 -29 104 -11 0 -27
-12 -36 -26z"/>
<path d="M3202 534 c-34 -23 -26 -34 24 -34 49 0 55 12 18 37 -17 11 -23 10
-42 -3z"/>
<path d="M3685 476 c-24 -17 -13 -46 18 -46 28 0 47 17 47 42 0 22 -37 24 -65
4z"/>
</g>
</svg>
