<?xml version="1.0" standalone="no"?>
<!DOCTYPE svg PUBLIC "-//W3C//DTD SVG 20010904//EN"
 "http://www.w3.org/TR/2001/REC-SVG-20010904/DTD/svg10.dtd">
<svg version="1.0" xmlns="http://www.w3.org/2000/svg"
 width="450.000000pt" height="450.000000pt" viewBox="0 0 450.000000 450.000000"
 preserveAspectRatio="xMidYMid meet">

<g transform="translate(0.000000,450.000000) scale(0.100000,-0.100000)"
fill="#000000" stroke="none">
<path d="M2050 4371 c-5 -11 -10 -65 -10 -120 l0 -101 -288 0 c-340 0 -322 6
-322 -106 0 -41 5 -75 12 -82 9 -9 190 -12 753 -12 708 0 741 1 752 18 7 12 8
24 2 33 -5 8 -9 28 -9 46 0 63 0 63 -144 65 l-131 2 137 5 c128 6 170 13 137
26 -8 3 -150 6 -317 7 l-303 3 -4 95 c-2 52 -4 98 -4 102 -1 4 -11 9 -23 11
-22 4 -22 4 2 6 14 1 32 6 40 11 10 7 -32 10 -127 10 -131 0 -143 -2 -153 -19z"/>
<path d="M3853 3711 c42 -27 61 -60 68 -116 l6 -50 2 43 c0 24 -6 56 -14 72
-16 30 -60 70 -79 70 -6 0 2 -8 17 -19z"/>
<path d="M252 2478 c-2 -1126 -2 -1138 19 -1192 28 -77 96 -148 177 -188 l67
-33 455 -3 456 -3 2 -87 2 -87 -129 -345 c-70 -190 -132 -353 -136 -363 -7
-16 2 -17 94 -17 84 0 104 3 116 18 8 9 106 170 217 357 l204 340 119 3 c65 1
122 -1 126 -5 5 -5 20 -157 34 -338 15 -182 31 -340 36 -352 8 -21 15 -23 83
-23 44 0 78 5 82 11 5 8 63 636 64 697 0 10 27 12 117 10 l118 -3 202 -340
c112 -187 210 -348 218 -357 12 -15 32 -18 109 -18 53 0 98 4 101 10 4 6 -13
10 -45 10 l-51 0 -165 336 c-90 185 -164 339 -164 342 0 3 9 -3 20 -13 30 -27
101 -16 134 21 15 17 23 35 19 44 -3 8 -8 29 -10 45 -11 82 5 75 -170 75 -86
0 -154 2 -152 5 3 2 80 5 172 5 98 1 165 6 161 11 -3 5 172 10 433 11 l438 3
-500 6 c-275 3 -1007 4 -1626 2 -1111 -3 -1126 -3 -1192 17 -88 27 -164 95
-209 188 l-33 67 -5 1135 -5 1135 -3 -1137z"/>
</g>
</svg>
